<svg width="81" height="81" viewBox="0 0 81 81" fill="none" xmlns="http://www.w3.org/2000/svg">
<path d="M30.3346 23.3893C30.3346 26.8261 27.5486 29.6121 24.1119 29.6121C20.6751 29.6121 17.8891 26.8261 17.8891 23.3893C17.8891 19.9526 20.6751 17.1666 24.1119 17.1666C27.5486 17.1666 30.3346 19.9526 30.3346 23.3893Z" fill="#FAFAFA" fill-opacity="0.980392"/>
<path fill-rule="evenodd" clip-rule="evenodd" d="M16.8266 43.8246C15.8507 45.385 13.7941 45.8601 12.2333 44.8846C10.6722 43.909 10.1976 41.8525 11.1733 40.2913L11.1795 40.2815L11.1913 40.2626L11.2315 40.1991C11.2655 40.1458 11.3136 40.0706 11.3746 39.9766C11.4962 39.7891 11.6697 39.5255 11.8836 39.211C12.3081 38.5868 12.907 37.7398 13.5869 36.8796C14.2512 36.0391 15.0681 35.0898 15.9315 34.3198C16.3631 33.935 16.8837 33.5246 17.4709 33.1953C18.0248 32.8846 18.8908 32.502 19.9481 32.502H28.2756C29.3331 32.502 30.1991 32.8846 30.7529 33.1953C31.3401 33.5246 31.8608 33.935 32.2923 34.3198C33.1558 35.0898 33.9726 36.0391 34.6369 36.8796C35.3169 37.7398 35.9158 38.5868 36.3403 39.211C36.5541 39.5255 36.7276 39.7891 36.8493 39.9766C36.9103 40.0706 36.9583 40.1458 36.9923 40.1991L37.0326 40.2626L37.0444 40.2815L37.0496 40.2898C37.0496 40.2898 36.9923 40.1991 37.0506 40.2913C38.0263 41.8525 37.5516 43.909 35.9906 44.8846C34.4296 45.8601 32.3734 45.386 31.3976 43.8253L31.3928 43.8176L31.3671 43.777C31.3431 43.7393 31.3056 43.6808 31.2561 43.6045C31.2159 43.5425 31.1679 43.469 31.1128 43.3855V47.5253L32.3183 60.184C32.4899 61.9863 31.1916 63.5961 29.3938 63.81C27.5961 64.0238 25.9563 62.7636 25.7001 60.9713L23.9999 49.0701L22.2998 60.9713C22.0438 62.7636 20.4039 64.0238 18.6061 63.81C16.8084 63.5961 15.51 61.9863 15.6817 60.184L17.0801 45.5H17.1116V43.3848C17.0562 43.4685 17.008 43.5423 16.9677 43.6045C16.9182 43.6808 16.8808 43.7393 16.8568 43.777L16.8311 43.8176L16.8266 43.8246Z" fill="#FAFAFA" fill-opacity="0.980392"/>
<path d="M63.6668 23.3888C63.6668 26.8253 60.881 29.6111 57.4445 29.6111C54.0081 29.6111 51.2223 26.8253 51.2223 23.3888C51.2223 19.9525 54.0081 17.1666 57.4445 17.1666C60.881 17.1666 63.6668 19.9525 63.6668 23.3888Z" fill="#FAFAFA" fill-opacity="0.980392"/>
<path fill-rule="evenodd" clip-rule="evenodd" d="M50.1688 43.4748C49.2007 45.0403 47.1465 45.5255 45.5808 44.5576C44.0148 43.5896 43.5302 41.5355 44.498 39.9696L44.5042 39.9598L44.5158 39.941L44.5557 39.8775C44.5892 39.8241 44.6368 39.7488 44.697 39.655C44.8173 39.4675 44.9888 39.204 45.2003 38.8895C45.6202 38.2655 46.2125 37.4183 46.885 36.5581C47.5418 35.7178 48.3502 34.7678 49.2055 33.9966C49.6328 33.6113 50.1497 33.1991 50.7342 32.8678C51.2845 32.5556 52.1523 32.1666 53.2158 32.1666H61.451C62.5145 32.1666 63.3823 32.5556 63.9326 32.8678C64.5172 33.1991 65.0342 33.6113 65.4615 33.9966C66.3167 34.7678 67.125 35.7178 67.782 36.5581C68.4543 37.4183 69.0467 38.2655 69.4665 38.8895C69.678 39.204 69.8495 39.4675 69.9698 39.655C70.03 39.7488 70.0777 39.8241 70.1113 39.8775L70.151 39.941C70.1818 39.9905 70.1688 39.9696 70.1688 39.9696C71.1368 41.5355 70.652 43.5896 69.086 44.5576C67.5205 45.5253 65.4672 45.041 64.4988 43.4761L64.4937 43.4678L64.4682 43.4271C64.4445 43.3895 64.4075 43.331 64.3585 43.2546C64.2605 43.102 64.1157 42.8793 63.9348 42.6105C63.8598 42.499 63.7792 42.3805 63.6938 42.2565C64.4728 46.1406 66.0095 51.4658 66.8142 54.1601C67.091 55.0871 66.5308 56.0621 65.584 56.2596C59.688 57.4885 55.5613 57.4565 49.1603 56.2375C48.185 56.0516 47.5997 55.0508 47.894 54.1026C48.7342 51.3971 50.3 46.1268 51.0415 42.1573C50.9305 42.3175 50.8268 42.4695 50.732 42.6105C50.5512 42.8793 50.4063 43.102 50.3083 43.2546C50.2593 43.331 50.2223 43.3895 50.1987 43.4271L50.1732 43.4678L50.1688 43.4748Z" fill="#FAFAFA" fill-opacity="0.980392"/>
<path fill-rule="evenodd" clip-rule="evenodd" d="M49.9999 59.086V61.3333C49.9999 62.587 50.9284 63.6468 52.1713 63.8115C53.4141 63.9763 54.5868 63.1951 54.9136 61.9848L55.5724 59.544C53.7689 59.483 51.9373 59.331 49.9999 59.086ZM59.4253 59.5356L60.0864 61.9846C60.4131 63.195 61.5858 63.9761 62.8286 63.8113C64.0714 63.6465 64.9999 62.5866 64.9999 61.333V59.0628C63.0619 59.3091 61.2296 59.4673 59.4253 59.5356Z" fill="#FAFAFA" fill-opacity="0.980392"/>
</svg>
