<svg width="80" height="80" viewBox="0 0 80 80" fill="none" xmlns="http://www.w3.org/2000/svg">
<path d="M57.5 10L53.8888 22.8175L46.6666 26.5873L53.8888 30.3572L57.5 41.6667L61.1111 30.3572L68.3333 26.5873L61.1111 22.8175L57.5 10Z" fill="#FAFAFA" fill-opacity="0.980392"/>
<path d="M33.3333 20L31.6666 26.6667L26.6666 28.3333L31.6666 30L33.3333 36.6667L35 30L40 28.3333L35 26.6667L33.3333 20Z" fill="#FAFAFA" fill-opacity="0.980392"/>
<path d="M10 50.0011C10 49.0806 10.7462 48.3345 11.6667 48.3345H16.6667C17.5872 48.3345 18.3333 49.0806 18.3333 50.0011V68.3268C18.3333 69.2473 17.5872 69.9935 16.6667 69.9935H11.6667C10.7462 69.9935 10 69.2473 10 68.3268V50.0011Z" fill="#FAFAFA" fill-opacity="0.980392"/>
<path d="M29.5086 48.648C31.0618 47.94 34.858 48.648 34.858 48.648L45.9016 51.1259C45.9016 51.1259 48.6626 52.0109 51.251 52.0109C53.8395 52.0109 52.2921 55.553 50.5608 56.7897C48.8295 58.0265 47.57 57.9595 47.57 57.9595L38.6543 57.8517C38.6543 57.8517 46.4195 59.2677 49.3528 59.4447C50.839 59.5344 53.3876 58.4885 56.2365 57.3195C59.0115 56.1809 62.071 54.9255 64.7105 54.4889C70.0598 53.6039 70.9226 58.3827 69.197 60.1525C67.4715 61.9225 53.6668 68.6482 51.251 69.5332C49.3591 70.2264 47.0706 69.9962 44.4885 69.7367C43.7735 69.6649 43.0358 69.5907 42.278 69.5332C39.2625 69.3047 36.9581 68.5722 34.677 67.8469C32.2318 67.0697 29.8136 66.3009 26.5751 66.1704C25.4888 66.1265 22.9456 66.261 21.6666 66.3359V51.5684C23.8765 50.7822 28.3521 49.1752 29.5086 48.648Z" fill="#FAFAFA" fill-opacity="0.980392"/>
</svg>
