<svg width="81" height="81" viewBox="0 0 81 81" fill="none" xmlns="http://www.w3.org/2000/svg">
<path fill-rule="evenodd" clip-rule="evenodd" d="M40.3334 28.8333C44.0152 28.8333 47.0001 25.8485 47.0001 22.1667C47.0001 18.4848 44.0152 15.5 40.3334 15.5C36.6514 15.5 33.6667 18.4848 33.6667 22.1667C33.6667 25.8485 36.6514 28.8333 40.3334 28.8333ZM59.3924 32.1393C59.8564 33.9208 58.7882 35.7412 57.0067 36.205C53.9996 36.988 51.2657 37.5872 48.6666 37.9987V48.6248L50.3076 61.7532C50.5262 63.5023 49.3451 65.1195 47.6121 65.4432C45.8791 65.7668 44.1937 64.6853 43.7662 62.975L40.4329 49.6417C40.3661 49.3745 40.3332 49.1032 40.3332 48.8333C40.3332 49.1032 40.3006 49.3747 40.2337 49.6418L36.9004 62.9752C36.4727 64.6853 34.7874 65.767 33.0546 65.4433C31.3216 65.1197 30.1402 63.5025 30.3589 61.7532L31.9999 48.6258V37.9545C29.4091 37.5413 26.6871 36.9557 23.6979 36.2147C21.9111 35.7717 20.8217 33.964 21.2646 32.1772C21.7076 30.3903 23.5152 29.3008 25.3021 29.7438C31.3654 31.247 35.8996 31.9855 40.3464 32.0033C44.7831 32.021 49.3042 31.3217 55.3267 29.7535C57.1082 29.2897 58.9286 30.3578 59.3924 32.1393Z" fill="#FAFAFA" fill-opacity="0.980392"/>
</svg>
