<svg width="24" height="34" viewBox="0 0 24 34" fill="none" xmlns="http://www.w3.org/2000/svg">
<path d="M12 7.00004C13.8409 7.00004 15.3333 5.50766 15.3333 3.66671C15.3333 1.82576 13.8409 0.333374 12 0.333374C10.159 0.333374 8.66663 1.82576 8.66663 3.66671C8.66663 5.50766 10.159 7.00004 12 7.00004Z" fill="#168EEA"/>
<path d="M23.6667 16.8334C23.6667 16.0167 23.0667 15.35 22.2667 15.2167C20.1834 14.8667 18.2167 13.75 16.8834 12.2834L14.7334 9.90002C14.45 9.58335 14.1 9.33335 13.7167 9.15002C13.7 9.15002 13.7 9.13335 13.6834 9.13335H13.6667C13.05 8.78335 12.3667 8.61669 11.5834 8.71669C9.88337 8.91669 8.66671 10.45 8.66671 12.1667V22C8.66671 23.8334 10.1667 25.3334 12 25.3334H20.3334V32C20.3334 32.9167 21.0834 33.6667 22 33.6667C22.9167 33.6667 23.6667 32.9167 23.6667 32V24.5C23.6667 22.6667 22.1667 21.1667 20.3334 21.1667H15.3334V15.4167C17 16.8 19.3334 17.9834 21.6667 18.45C22.7 18.6667 23.6667 17.8834 23.6667 16.8334ZM13.3834 27C12.7 28.9334 10.85 30.3334 8.66671 30.3334C5.90004 30.3334 3.66671 28.1 3.66671 25.3334C3.66671 23.15 5.06671 21.3167 7.00004 20.6167V17.1667C3.20004 17.9334 0.333374 21.3 0.333374 25.3334C0.333374 29.9334 4.06671 33.6667 8.66671 33.6667C12.7 33.6667 16.0667 30.8 16.8334 27H13.3834Z" fill="#168EEA"/>
</svg>
