<svg width="22" height="28" viewBox="0 0 22 28" fill="none" xmlns="http://www.w3.org/2000/svg">
<path d="M14.4533 1.45329C13.9466 0.946626 13.2666 0.666626 12.5599 0.666626H2.99992C1.53325 0.666626 0.333252 1.86663 0.333252 3.33329V24.6666C0.333252 26.1333 1.51992 27.3333 2.98659 27.3333H18.9999C20.4666 27.3333 21.6666 26.1333 21.6666 24.6666V9.77329C21.6666 9.06663 21.3866 8.38663 20.8799 7.89329L14.4533 1.45329ZM14.9999 19.3333H12.3333V22C12.3333 22.7333 11.7333 23.3333 10.9999 23.3333C10.2666 23.3333 9.66659 22.7333 9.66659 22V19.3333H6.99992C6.26659 19.3333 5.66659 18.7333 5.66659 18C5.66659 17.2666 6.26659 16.6666 6.99992 16.6666H9.66659V14C9.66659 13.2666 10.2666 12.6666 10.9999 12.6666C11.7333 12.6666 12.3333 13.2666 12.3333 14V16.6666H14.9999C15.7333 16.6666 16.3333 17.2666 16.3333 18C16.3333 18.7333 15.7333 19.3333 14.9999 19.3333ZM12.3333 8.66663V2.66663L19.6666 9.99996H13.6666C12.9333 9.99996 12.3333 9.39996 12.3333 8.66663Z" fill="#FAFAFA" fill-opacity="0.980392"/>
</svg>
