<svg width="22" height="28" viewBox="0 0 22 28" fill="none" xmlns="http://www.w3.org/2000/svg">
<path d="M14.4533 1.5833C13.9466 1.07663 13.2666 0.796631 12.5599 0.796631H2.99992C1.53325 0.796631 0.333252 1.99663 0.333252 3.4633V24.7966C0.333252 26.2633 1.51992 27.4633 2.98659 27.4633H18.9999C20.4666 27.4633 21.6666 26.2633 21.6666 24.7966V9.9033C21.6666 9.19663 21.3866 8.51663 20.8799 8.0233L14.4533 1.5833ZM14.9999 19.4633H12.3333V22.13C12.3333 22.8633 11.7333 23.4633 10.9999 23.4633C10.2666 23.4633 9.66659 22.8633 9.66659 22.13V19.4633H6.99992C6.26659 19.4633 5.66659 18.8633 5.66659 18.13C5.66659 17.3966 6.26659 16.7966 6.99992 16.7966H9.66659V14.13C9.66659 13.3966 10.2666 12.7966 10.9999 12.7966C11.7333 12.7966 12.3333 13.3966 12.3333 14.13V16.7966H14.9999C15.7333 16.7966 16.3333 17.3966 16.3333 18.13C16.3333 18.8633 15.7333 19.4633 14.9999 19.4633ZM12.3333 8.79663V2.79663L19.6666 10.13H13.6666C12.9333 10.13 12.3333 9.52996 12.3333 8.79663Z" fill="#168EEA"/>
</svg>
