<svg width="28" height="28" viewBox="0 0 28 28" fill="none" xmlns="http://www.w3.org/2000/svg">
<path d="M14 0.666626C6.63996 0.666626 0.666626 6.63996 0.666626 14C0.666626 21.36 6.63996 27.3333 14 27.3333C21.36 27.3333 27.3333 21.36 27.3333 14C27.3333 6.63996 21.36 0.666626 14 0.666626ZM14 15.3333C13.2666 15.3333 12.6666 14.7333 12.6666 14V8.66663C12.6666 7.93329 13.2666 7.33329 14 7.33329C14.7333 7.33329 15.3333 7.93329 15.3333 8.66663V14C15.3333 14.7333 14.7333 15.3333 14 15.3333ZM15.3333 20.6666H12.6666V18H15.3333V20.6666Z" fill="#168EEA"/>
</svg>
