<svg width="32" height="34" viewBox="0 0 32 34" fill="none" xmlns="http://www.w3.org/2000/svg">
<path d="M18.6667 1.73333V13.2667H32C32 6.55 27.0334 0.983331 20.5667 0.0666645C19.5667 -0.0833355 18.6667 0.716665 18.6667 1.73333ZM29.2 23.0833C30.95 20.8333 32 18 32 14.9333H7.73337L6.60004 12.55C6.33337 11.9667 5.73337 11.6 5.10004 11.6H2.00004C1.08337 11.6 0.333374 12.35 0.333374 13.2667C0.333374 14.1833 1.08337 14.9333 2.00004 14.9333H4.03337C4.03337 14.9333 7.18337 21.7167 7.56671 22.3C5.35004 23.4833 4.00004 26.0833 4.66671 28.8667C5.16671 30.9667 6.90004 32.65 9.00004 33.1167C12.5 33.8833 15.6334 31.5167 16.0834 28.2667H19.55C20 31.5 23.1167 33.8667 26.5834 33.1333C28.7 32.6833 30.4334 31.0167 30.9667 28.9167C31.55 26.6 30.7334 24.45 29.2 23.0833ZM10.3334 29.9333C8.95004 29.9333 7.83337 28.8167 7.83337 27.4333C7.83337 26.05 8.95004 24.9333 10.3334 24.9333C11.7167 24.9333 12.8334 26.05 12.8334 27.4333C12.8334 28.8167 11.7167 29.9333 10.3334 29.9333ZM25.3334 29.9333C23.95 29.9333 22.8334 28.8167 22.8334 27.4333C22.8334 26.05 23.95 24.9333 25.3334 24.9333C26.7167 24.9333 27.8334 26.05 27.8334 27.4333C27.8334 28.8167 26.7167 29.9333 25.3334 29.9333Z" fill="#168EEA"/>
</svg>
