<svg width="40" height="42" viewBox="0 0 40 42" fill="none" xmlns="http://www.w3.org/2000/svg">
<path fill-rule="evenodd" clip-rule="evenodd" d="M14.8333 22.5583C15.9379 23.3867 16.1617 24.9537 15.3333 26.0583L12.8333 29.3916C12.3612 30.0211 11.6203 30.3916 10.8333 30.3916H7.5C6.11929 30.3916 5 29.2723 5 27.8916C5 26.5109 6.11929 25.3916 7.5 25.3916H9.58333L11.3333 23.0583C12.1618 21.9537 13.7288 21.7298 14.8333 22.5583Z" fill="#168EEA"/>
<path d="M32.895 25.7195H30.2249L29.7501 25.5011C28.5338 24.1494 26.5634 21.2106 24.9125 20.2017C24.2143 19.7748 23.4293 19.5534 22.6322 19.5584H22.6283H17.9166L18.4049 30.3917H22.3456H22.3465C22.9972 30.3905 23.6411 30.2443 24.2398 29.9614C24.8388 29.6785 25.3805 29.2648 25.8325 28.7448L26.307 28.1989C26.9063 28.8649 27.4596 30.3917 28.349 30.3917H33.0065C33.5649 30.3917 33.9886 30.1456 34.3835 29.7075C34.7782 29.2694 35 28.6751 35 28.0556C35 27.4361 34.7782 26.8419 34.3835 26.4039C33.9886 25.9656 33.4533 25.7195 32.895 25.7195Z" fill="#168EEA"/>
<path d="M33.3333 13.3084C33.3333 16.2999 30.9082 18.725 27.9167 18.725C24.9251 18.725 22.5 16.2999 22.5 13.3084C22.5 10.3168 24.9251 7.89169 27.9167 7.89169C30.9082 7.89169 33.3333 10.3168 33.3333 13.3084Z" fill="#168EEA"/>
<path fill-rule="evenodd" clip-rule="evenodd" d="M27.9167 17.0584C29.9878 17.0584 31.6667 15.3794 31.6667 13.3084C31.6667 11.2373 29.9878 9.55836 27.9167 9.55836C25.8456 9.55836 24.1667 11.2373 24.1667 13.3084C24.1667 15.3794 25.8456 17.0584 27.9167 17.0584ZM27.9167 18.725C30.9082 18.725 33.3333 16.2999 33.3333 13.3084C33.3333 10.3168 30.9082 7.89169 27.9167 7.89169C24.9251 7.89169 22.5 10.3168 22.5 13.3084C22.5 16.2999 24.9251 18.725 27.9167 18.725Z" fill="#168EEA"/>
</svg>
