<svg width="40" height="41" viewBox="0 0 40 41" fill="none" xmlns="http://www.w3.org/2000/svg">
<path d="M19.9999 15.2083C22.7615 15.2083 25 12.9698 25 10.2083C25 7.44688 22.7615 5.20825 19.9999 5.20825C17.2385 5.20825 15 7.44688 15 10.2083C15 12.9698 17.2385 15.2083 19.9999 15.2083Z" fill="#168EEA"/>
<path fill-rule="evenodd" clip-rule="evenodd" d="M12.5 13.9141V28.576C12.5 31.4184 14.8438 35.2082 20 35.2082C25.1562 35.2082 27.5 31.8921 27.5 28.576V27.8637C26.2967 24.8046 23.804 21.7442 20.8217 19.1687C19.1317 17.7093 17.3079 16.4257 15.5125 15.4004C15.3564 15.3153 15.1987 15.2271 15.0391 15.1356C14.1767 14.6637 13.3243 14.2534 12.5 13.9141ZM20.8603 17.0343C21.2156 17.3182 21.5662 17.6095 21.9111 17.9073C24.0775 19.7782 26.0513 21.9401 27.5 24.2339V14.3749C24.9649 16.1901 22.9083 17.0298 20.8603 17.0343Z" fill="#168EEA"/>
</svg>
