<svg width="24" height="29" viewBox="0 0 24 29" fill="none" xmlns="http://www.w3.org/2000/svg">
<path d="M14.6667 11.13C14.6667 11.8633 14.0667 12.4633 13.3333 12.4633H11.2267C10.8533 12.4633 10.4933 12.3833 10.16 12.2367L7.09333 10.89L5.33333 16.13V27.13C5.33333 27.8633 4.73333 28.4633 4 28.4633H1.33333C0.6 28.4633 0 27.8633 0 27.13V15.57C0 15.2767 0.0533332 14.9833 0.146667 14.7033L2.12 8.94334C2.61333 7.46334 4.29333 6.71667 5.73333 7.37001L11.2667 9.81001L13.3333 9.79667C14.0667 9.79667 14.6667 10.3967 14.6667 11.13ZM6.66667 0.463341C5.2 0.463341 4 1.66334 4 3.13001C4 4.59667 5.2 5.79667 6.66667 5.79667C8.13333 5.79667 9.33333 4.59667 9.33333 3.13001C9.33333 1.66334 8.13333 0.463341 6.66667 0.463341ZM9.33333 24.4633H22.6667C23.4 24.4633 24 23.8633 24 23.13C24 22.3967 23.4 21.7967 22.6667 21.7967H9.33333C8.6 21.7967 8 22.3967 8 23.13C8 23.8633 8.6 24.4633 9.33333 24.4633ZM22 20.4633C23.1067 20.4633 24 19.57 24 18.4633C24 17.3567 23.1067 16.4633 22 16.4633C20.8933 16.4633 20 17.3567 20 18.4633C20 19.57 20.8933 20.4633 22 20.4633ZM13.3333 15.13C13.3333 14.3967 12.7333 13.7967 12 13.7967H9.33333C8.6 13.7967 8 14.3967 8 15.13C8 15.8633 8.6 16.4633 9.33333 16.4633H10.6667V17.7967C10.6667 19.2633 11.8667 20.4633 13.3333 20.4633H16C17.4667 20.4633 18.6667 19.2633 18.6667 17.7967V15.13C18.6667 14.3967 18.0667 13.7967 17.3333 13.7967C16.6 13.7967 16 14.3967 16 15.13V16.4633H13.3333V15.13Z" fill="#7F838C"/>
</svg>
