<svg width="24" height="29" viewBox="0 0 24 29" fill="none" xmlns="http://www.w3.org/2000/svg">
<path d="M14.6667 10.9999C14.6667 11.7333 14.0667 12.3333 13.3333 12.3333H11.2267C10.8533 12.3333 10.4933 12.2533 10.16 12.1066L7.09333 10.7599L5.33333 15.9999V26.9999C5.33333 27.7333 4.73333 28.3333 4 28.3333H1.33333C0.6 28.3333 0 27.7333 0 26.9999V15.4399C0 15.1466 0.0533332 14.8533 0.146667 14.5733L2.12 8.81325C2.61333 7.33325 4.29333 6.58659 5.73333 7.23992L11.2667 9.67992L13.3333 9.66659C14.0667 9.66659 14.6667 10.2666 14.6667 10.9999ZM6.66667 0.333252C5.2 0.333252 4 1.53325 4 2.99992C4 4.46659 5.2 5.66659 6.66667 5.66659C8.13333 5.66659 9.33333 4.46659 9.33333 2.99992C9.33333 1.53325 8.13333 0.333252 6.66667 0.333252ZM9.33333 24.3333H22.6667C23.4 24.3333 24 23.7333 24 22.9999C24 22.2666 23.4 21.6666 22.6667 21.6666H9.33333C8.6 21.6666 8 22.2666 8 22.9999C8 23.7333 8.6 24.3333 9.33333 24.3333ZM22 20.3333C23.1067 20.3333 24 19.4399 24 18.3333C24 17.2266 23.1067 16.3333 22 16.3333C20.8933 16.3333 20 17.2266 20 18.3333C20 19.4399 20.8933 20.3333 22 20.3333ZM13.3333 14.9999C13.3333 14.2666 12.7333 13.6666 12 13.6666H9.33333C8.6 13.6666 8 14.2666 8 14.9999C8 15.7333 8.6 16.3333 9.33333 16.3333H10.6667V17.6666C10.6667 19.1333 11.8667 20.3333 13.3333 20.3333H16C17.4667 20.3333 18.6667 19.1333 18.6667 17.6666V14.9999C18.6667 14.2666 18.0667 13.6666 17.3333 13.6666C16.6 13.6666 16 14.2666 16 14.9999V16.3333H13.3333V14.9999Z" fill="#FAFAFA" fill-opacity="0.980392"/>
</svg>
