<svg width="32" height="33" viewBox="0 0 32 33" fill="none" xmlns="http://www.w3.org/2000/svg">
<path fill-rule="evenodd" clip-rule="evenodd" d="M22.6666 10.7965C22.6666 14.4784 19.6818 17.4632 15.9999 17.4632C12.3181 17.4632 9.33325 14.4784 9.33325 10.7965C9.33325 7.11468 12.3181 4.12988 15.9999 4.12988C19.6818 4.12988 22.6666 7.11468 22.6666 10.7965ZM21.3333 10.7965C21.3333 13.7421 18.9455 16.1299 15.9999 16.1299C13.0544 16.1299 10.6666 13.7421 10.6666 10.7965C10.6666 7.85102 13.0544 5.46322 15.9999 5.46322C18.9455 5.46322 21.3333 7.85102 21.3333 10.7965Z" fill="#FAFAFA" fill-opacity="0.980392"/>
<path d="M20.3334 18.7966C20.1923 18.7622 20.0413 18.8314 19.9728 18.9709L17.3334 26.511V24.1299L16.9504 21.449C17.1961 21.3972 17.3969 21.2095 17.4597 20.9582L17.793 19.6249C17.8982 19.2042 17.5799 18.7966 17.1462 18.7966H14.8539C14.4202 18.7966 14.1019 19.2042 14.2071 19.6249L14.5405 20.9582C14.6033 21.2095 14.804 21.3972 15.0497 21.449L14.6667 24.1299V25.9274L12.0273 18.9709C11.9588 18.8314 11.8078 18.7622 11.6667 18.7966C11.4276 18.8549 11.1701 18.9152 10.9015 18.978C9.39341 19.3309 7.52968 19.767 6.53875 20.4177C5.36364 21.1893 4.66675 22.0989 4.66675 23.1299V27.4632H27.3334V23.1299C27.3334 22.0989 26.6365 21.1893 25.4614 20.4177C24.4705 19.767 22.6067 19.3309 21.0986 18.978C20.8299 18.9151 20.5725 18.8549 20.3334 18.7966Z" fill="#FAFAFA" fill-opacity="0.980392"/>
</svg>
