<svg width="32" height="32" viewBox="0 0 32 32" fill="none" xmlns="http://www.w3.org/2000/svg">
<path fill-rule="evenodd" clip-rule="evenodd" d="M22.6666 10.6667C22.6666 14.3485 19.6818 17.3333 15.9999 17.3333C12.3181 17.3333 9.33325 14.3485 9.33325 10.6667C9.33325 6.9848 12.3181 4 15.9999 4C19.6818 4 22.6666 6.9848 22.6666 10.6667ZM21.3333 10.6667C21.3333 13.6122 18.9455 16 15.9999 16C13.0544 16 10.6666 13.6122 10.6666 10.6667C10.6666 7.72113 13.0544 5.33333 15.9999 5.33333C18.9455 5.33333 21.3333 7.72113 21.3333 10.6667Z" fill="#7F838C"/>
<path d="M20.3334 18.6667C20.1923 18.6323 20.0413 18.7015 19.9728 18.841L17.3334 26.3811V24L16.9504 21.3191C17.1961 21.2673 17.3969 21.0796 17.4597 20.8283L17.793 19.495C17.8982 19.0743 17.5799 18.6667 17.1462 18.6667H14.8539C14.4202 18.6667 14.1019 19.0743 14.2071 19.495L14.5405 20.8283C14.6033 21.0796 14.804 21.2673 15.0497 21.3191L14.6667 24V25.7975L12.0273 18.841C11.9588 18.7015 11.8078 18.6323 11.6667 18.6667C11.4276 18.725 11.1701 18.7853 10.9015 18.8481C9.39342 19.201 7.52968 19.6371 6.53875 20.2878C5.36364 21.0594 4.66675 21.969 4.66675 23V27.3333H27.3334V23C27.3334 21.969 26.6365 21.0594 25.4614 20.2878C24.4705 19.6371 22.6067 19.201 21.0986 18.8481C20.8299 18.7852 20.5725 18.725 20.3334 18.6667Z" fill="#7F838C"/>
</svg>
