<svg width="24" height="25" viewBox="0 0 24 25" fill="none" xmlns="http://www.w3.org/2000/svg">
<path d="M17.1333 1.26334L19.0667 3.19667L16.16 6.07667C15.64 6.59667 15.64 7.45001 16.16 7.97001C16.68 8.49001 17.5333 8.49001 18.0533 7.97001L20.9333 5.06334L22.8667 6.99667C23.28 7.41 24 7.11667 24 6.51667V0.796672C24 0.423338 23.7067 0.130005 23.3333 0.130005H17.6133C17.0133 0.130005 16.72 0.850005 17.1333 1.26334ZM1.13333 6.99667L3.06667 5.06334L5.94667 7.97001C6.46667 8.49001 7.32 8.49001 7.84 7.97001C8.36 7.45001 8.36 6.59667 7.84 6.07667L4.93333 3.19667L6.86667 1.26334C7.28 0.850005 6.98667 0.130005 6.38667 0.130005H0.666667C0.293333 0.130005 0 0.423338 0 0.796672V6.51667C0 7.11667 0.72 7.41 1.13333 6.99667ZM6.86667 22.9967L4.93333 21.0633L7.84 18.1833C8.36 17.6633 8.36 16.81 7.84 16.29C7.32 15.77 6.46667 15.77 5.94667 16.29L3.06667 19.1967L1.13333 17.2633C0.72 16.85 0 17.1433 0 17.7433V23.4633C0 23.8367 0.293333 24.13 0.666667 24.13H6.38667C6.98667 24.13 7.28 23.41 6.86667 22.9967ZM22.8667 17.2633L20.9333 19.1967L18.0533 16.29C17.5333 15.77 16.68 15.77 16.16 16.29C15.64 16.81 15.64 17.6633 16.16 18.1833L19.0667 21.0633L17.1333 22.9967C16.72 23.41 17.0133 24.13 17.6133 24.13H23.3333C23.7067 24.13 24 23.8367 24 23.4633V17.7433C24 17.1433 23.28 16.85 22.8667 17.2633Z" fill="#7F838C"/>
</svg>
