<svg width="29" height="34" viewBox="0 0 29 34" fill="none" xmlns="http://www.w3.org/2000/svg">
<path d="M3.16663 32.2V21.3667H2.33329C1.41663 21.3667 0.666626 20.6167 0.666626 19.7V12.2C0.666626 10.3667 2.16663 8.86666 3.99996 8.86666H8.99996C10.8333 8.86666 12.3333 10.3667 12.3333 12.2V19.7C12.3333 20.6167 11.5833 21.3667 10.6666 21.3667H9.83329V32.2C9.83329 33.1167 9.08329 33.8667 8.16663 33.8667H4.83329C3.91663 33.8667 3.16663 33.1167 3.16663 32.2ZM24 32.2V23.8667H26.6833C27.8166 23.8667 28.6166 22.75 28.2666 21.6667L24.7666 11.15C24.3 9.78333 23.0333 8.86666 21.6 8.86666H21.4C19.9666 8.86666 18.6833 9.78333 18.2333 11.15L14.7333 21.6667C14.3666 22.75 15.1666 23.8667 16.3166 23.8667H19V32.2C19 33.1167 19.75 33.8667 20.6666 33.8667H22.3333C23.25 33.8667 24 33.1167 24 32.2ZM6.49996 7.19999C8.34996 7.19999 9.83329 5.71666 9.83329 3.86666C9.83329 2.01666 8.34996 0.533325 6.49996 0.533325C4.64996 0.533325 3.16663 2.01666 3.16663 3.86666C3.16663 5.71666 4.64996 7.19999 6.49996 7.19999ZM21.5 7.19999C23.35 7.19999 24.8333 5.71666 24.8333 3.86666C24.8333 2.01666 23.35 0.533325 21.5 0.533325C19.65 0.533325 18.1666 2.01666 18.1666 3.86666C18.1666 5.71666 19.65 7.19999 21.5 7.19999Z" fill="#168EEA"/>
</svg>
