<svg width="40" height="41" viewBox="0 0 40 41" fill="none" xmlns="http://www.w3.org/2000/svg">
<path fill-rule="evenodd" clip-rule="evenodd" d="M12.0831 11.0333C13.694 11.0333 14.9998 9.72751 14.9998 8.11668C14.9998 6.50585 13.694 5.20001 12.0831 5.20001C10.4723 5.20001 9.16646 6.50585 9.16646 8.11668C9.16646 9.72751 10.4723 11.0333 12.0831 11.0333ZM16.3735 16.8667C16.415 17.1603 16.4517 17.4739 16.4836 17.8013C16.6658 19.6722 16.6665 21.7008 16.6665 22.2832C16.6665 22.9735 17.226 23.5332 17.9165 23.5332C18.6068 23.5332 19.1665 22.9735 19.1665 22.2832V22.2775C19.1665 21.6881 19.1665 19.5573 18.9719 17.559C18.8754 16.5682 18.7245 15.5346 18.4744 14.721C18.3517 14.3218 18.1787 13.8856 17.9155 13.5243C17.6518 13.1623 17.1581 12.7 16.407 12.7H7.75921C7.00809 12.7 6.51438 13.1623 6.25062 13.5243C5.98749 13.8856 5.81451 14.3218 5.69176 14.721C5.4416 15.5346 5.29079 16.5682 5.19432 17.559C4.99974 19.5573 4.99975 21.6881 4.99976 22.2775V22.2832C4.99976 22.9735 5.5594 23.5332 6.24976 23.5332C6.94011 23.5332 7.49976 22.9735 7.49976 22.2832C7.49976 21.7008 7.50039 19.6722 7.68255 17.8013C7.71443 17.4739 7.75109 17.1603 7.79262 16.8667H8.33309L8.33308 33.9499C8.33308 34.6208 8.86279 35.1722 9.53321 35.1989C10.2036 35.2257 10.7756 34.7184 10.8291 34.0496L11.537 25.2H12.6291L13.337 34.0497C13.3905 34.7185 13.9625 35.2258 14.633 35.199C15.3034 35.1723 15.8331 34.6209 15.8331 33.95V16.8667H16.3735Z" fill="#168EEA"/>
<path fill-rule="evenodd" clip-rule="evenodd" d="M30.8333 8.11668C30.8333 9.72751 29.5275 11.0333 27.9167 11.0333C26.3058 11.0333 25 9.72751 25 8.11668C25 6.50585 26.3058 5.20001 27.9167 5.20001C29.5275 5.20001 30.8333 6.50585 30.8333 8.11668ZM31.5554 12.7383C31.4556 12.7132 31.353 12.7004 31.25 12.7004H26.6668C26.6558 12.7004 26.6444 12.7006 26.6334 12.7008L26.1981 12.7008C25.5216 12.7007 24.7911 12.7007 24.5816 12.701C24.4792 12.7012 24.3772 12.7138 24.2779 12.7389C23.3498 12.9728 22.7263 13.538 22.3338 14.3103C21.9903 14.9863 21.8228 15.827 21.6837 16.6622L20.8503 21.6622C20.7368 22.3432 21.1968 22.9872 21.8778 23.1007C22.5588 23.2142 23.2028 22.7542 23.3163 22.0732L24.1497 17.0732C24.227 16.6089 24.2983 16.2553 24.3707 15.9823L24.5833 18.5335C24.5833 20.0914 23.1717 27.2071 22.6724 29.6753C22.5785 30.1394 22.89 30.5862 23.3584 30.6559C26.7931 31.1679 29.0403 31.1515 32.4741 30.6522C32.9428 30.584 33.2568 30.1393 33.1649 29.6747C32.6693 27.1674 31.25 19.872 31.25 18.5333L31.4627 15.9818C31.5351 16.2548 31.6063 16.6084 31.6837 17.0726L32.517 22.0726C32.6305 22.7535 33.2745 23.2136 33.9555 23.1001C34.6365 22.9866 35.0965 22.3426 34.983 21.6616L34.1497 16.6616C34.0105 15.8264 33.843 14.9858 33.4995 14.3098C33.1071 13.5374 32.4835 12.9722 31.5554 12.7383ZM25.0064 34.4701L24.6926 31.9596C25.5754 32.0682 26.4151 32.138 27.2416 32.1698L26.6418 34.5688C26.5445 34.9581 26.1836 35.2228 25.7831 35.1985C25.3826 35.1743 25.0562 34.8682 25.0064 34.4701ZM29.1916 34.5684L28.5963 32.1878C29.4274 32.1778 30.2618 32.1291 31.1303 32.0426L30.8269 34.4697C30.7772 34.8678 30.4508 35.1739 30.0503 35.1981C29.6498 35.2223 29.2888 34.9577 29.1916 34.5684Z" fill="#168EEA"/>
</svg>
