<svg width="40" height="42" viewBox="0 0 40 42" fill="none" xmlns="http://www.w3.org/2000/svg">
<path d="M19.9999 15.7917C22.7615 15.7917 25 13.5532 25 10.7918C25 8.03037 22.7615 5.79175 19.9999 5.79175C17.2385 5.79175 15 8.03037 15 10.7918C15 13.5532 17.2385 15.7917 19.9999 15.7917Z" fill="#168EEA"/>
<path fill-rule="evenodd" clip-rule="evenodd" d="M12.5 14.4973V29.1592C12.5 32.0016 14.8438 35.7915 20 35.7915C25.1562 35.7915 27.5 32.4754 27.5 29.1592V28.447C26.2967 25.3879 23.804 22.3275 20.8217 19.752C19.1317 18.2926 17.3079 17.009 15.5125 15.9836C15.3564 15.8986 15.1987 15.8103 15.0391 15.7189C14.1767 15.247 13.3243 14.8366 12.5 14.4973ZM20.8603 17.6176C21.2156 17.9015 21.5662 18.1927 21.9111 18.4906C24.0775 20.3615 26.0513 22.5233 27.5 24.8171V14.9581C24.9649 16.7733 22.9083 17.6131 20.8603 17.6176Z" fill="#168EEA"/>
</svg>
