<svg width="34" height="34" viewBox="0 0 34 34" fill="none" xmlns="http://www.w3.org/2000/svg">
<path d="M12 16.5834C10.85 16.5834 9.91671 17.5167 9.91671 18.6667C9.91671 19.8167 10.85 20.75 12 20.75C13.15 20.75 14.0834 19.8167 14.0834 18.6667C14.0834 17.5167 13.15 16.5834 12 16.5834ZM22 16.5834C20.85 16.5834 19.9167 17.5167 19.9167 18.6667C19.9167 19.8167 20.85 20.75 22 20.75C23.15 20.75 24.0834 19.8167 24.0834 18.6667C24.0834 17.5167 23.15 16.5834 22 16.5834ZM17 0.333374C7.80004 0.333374 0.333374 7.80004 0.333374 17C0.333374 26.2 7.80004 33.6667 17 33.6667C26.2 33.6667 33.6667 26.2 33.6667 17C33.6667 7.80004 26.2 0.333374 17 0.333374ZM17 30.3334C9.65004 30.3334 3.66671 24.35 3.66671 17C3.66671 16.5167 3.70004 16.0334 3.75004 15.5667C7.68337 13.8167 10.8 10.6 12.4334 6.61671C15.45 10.8834 20.4167 13.6667 26.0334 13.6667C27.3334 13.6667 28.5834 13.5167 29.7834 13.2334C30.1334 14.4167 30.3334 15.6834 30.3334 17C30.3334 24.35 24.35 30.3334 17 30.3334Z" fill="#168EEA"/>
</svg>
