<svg width="40" height="40" viewBox="0 0 40 40" fill="none" xmlns="http://www.w3.org/2000/svg">
<path d="M27.284 12.4987C29.3547 12.4987 31.0333 10.8201 31.0333 8.74933C31.0333 6.67868 29.3547 5 27.284 5C25.2133 5 23.5347 6.67868 23.5347 8.74933C23.5347 10.8201 25.2133 12.4987 27.284 12.4987Z" fill="#168EEA"/>
<path d="M17.2804 17.0574C18.1382 16.1947 18.1343 14.8 17.2716 13.9423C16.4089 13.0845 15.0143 13.0885 14.1564 13.9511L12.5223 15.5945H10.3675C9.151 15.5945 8.16479 16.5808 8.16479 17.7973C8.16479 19.0139 9.151 20 10.3675 20H12.668C13.7973 20 14.8781 19.5416 15.6632 18.7298L17.2804 17.0574Z" fill="#168EEA"/>
<path d="M17.4289 24.3241C17.4289 24.3241 15.5308 23.9701 14.7543 24.3241C14.176 24.5877 11.9382 25.3912 10.8333 25.7842V33.168C11.4728 33.1306 12.7443 33.0633 13.2875 33.0852C14.9068 33.1505 16.1158 33.5349 17.3384 33.9235C18.479 34.2862 19.6312 34.6524 21.1389 34.7667C21.5178 34.7954 21.8867 34.8325 22.2442 34.8684C23.5352 34.9982 24.6795 35.1132 25.6254 34.7667C26.8333 34.3242 33.7357 30.9613 34.5984 30.0763C35.4613 29.1914 35.0298 26.802 32.3552 27.2445C31.0354 27.4628 29.5057 28.0905 28.1182 28.6598C26.6938 29.2443 25.4194 29.7672 24.6763 29.7224C23.2097 29.6339 19.3271 28.9259 19.3271 28.9259L23.7849 28.9798C23.7849 28.9798 24.4147 29.0133 25.2803 28.3949C26.146 27.7766 26.9197 26.0055 25.6254 26.0055C24.3313 26.0055 22.9508 25.563 22.9508 25.563L17.4289 24.3241Z" fill="#168EEA"/>
<path d="M5 25.0006C5 24.5403 5.3731 24.1672 5.83333 24.1672H8.33333C8.79358 24.1672 9.16667 24.5403 9.16667 25.0006V34.1634C9.16667 34.6237 8.79358 34.9967 8.33333 34.9967H5.83333C5.3731 34.9967 5 34.6237 5 34.1634V25.0006Z" fill="#168EEA"/>
<path d="M28.8598 15.5475C30.0873 15.5475 31.0825 16.5426 31.0825 17.7702C31.0825 18.9965 30.0895 19.9911 28.8632 19.9926C27.7847 19.994 26.6385 19.9954 26.2489 19.9954C26.2376 19.9954 26.227 19.994 26.2164 19.9925C26.2058 19.9911 26.1953 19.9897 26.1839 19.9897C25.9204 19.9965 25.6582 19.9487 25.4139 19.8492C25.1697 19.7497 24.9487 19.6007 24.765 19.4115L24.1642 18.8099C23.8032 19.1842 23.3706 19.482 22.8922 19.6856C22.4137 19.8893 21.8991 19.9945 21.3791 19.9954H18.81L18.4202 12.2029H22.5517C23.4475 12.2029 24.3057 12.5635 24.9326 13.2033L27.2296 15.5475H28.8598Z" fill="#168EEA"/>
</svg>
