<svg width="38" height="20" viewBox="0 0 38 20" fill="none" xmlns="http://www.w3.org/2000/svg">
<path d="M37.3333 3.33333C37.3333 5.16667 35.8333 6.66667 34 6.66667C33.7 6.66667 33.4166 6.63333 33.15 6.55L27.2166 12.4667C27.3 12.7333 27.3333 13.0333 27.3333 13.3333C27.3333 15.1667 25.8333 16.6667 24 16.6667C22.1666 16.6667 20.6666 15.1667 20.6666 13.3333C20.6666 13.0333 20.7 12.7333 20.7833 12.4667L16.5333 8.21667C16.2666 8.3 15.9666 8.33333 15.6666 8.33333C15.3666 8.33333 15.0666 8.3 14.8 8.21667L7.21663 15.8167C7.29996 16.0833 7.33329 16.3667 7.33329 16.6667C7.33329 18.5 5.83329 20 3.99996 20C2.16663 20 0.666626 18.5 0.666626 16.6667C0.666626 14.8333 2.16663 13.3333 3.99996 13.3333C4.29996 13.3333 4.58329 13.3667 4.84996 13.45L12.45 5.86667C12.3666 5.6 12.3333 5.3 12.3333 5C12.3333 3.16667 13.8333 1.66667 15.6666 1.66667C17.5 1.66667 19 3.16667 19 5C19 5.3 18.9666 5.6 18.8833 5.86667L23.1333 10.1167C23.4 10.0333 23.7 10 24 10C24.3 10 24.6 10.0333 24.8666 10.1167L30.7833 4.18333C30.7 3.91667 30.6666 3.63333 30.6666 3.33333C30.6666 1.5 32.1666 0 34 0C35.8333 0 37.3333 1.5 37.3333 3.33333ZM37.3333 3.33333C37.3333 5.16667 35.8333 6.66667 34 6.66667C33.7 6.66667 33.4166 6.63333 33.15 6.55L27.2166 12.4667C27.3 12.7333 27.3333 13.0333 27.3333 13.3333C27.3333 15.1667 25.8333 16.6667 24 16.6667C22.1666 16.6667 20.6666 15.1667 20.6666 13.3333C20.6666 13.0333 20.7 12.7333 20.7833 12.4667L16.5333 8.21667C16.2666 8.3 15.9666 8.33333 15.6666 8.33333C15.3666 8.33333 15.0666 8.3 14.8 8.21667L7.21663 15.8167C7.29996 16.0833 7.33329 16.3667 7.33329 16.6667C7.33329 18.5 5.83329 20 3.99996 20C2.16663 20 0.666626 18.5 0.666626 16.6667C0.666626 14.8333 2.16663 13.3333 3.99996 13.3333C4.29996 13.3333 4.58329 13.3667 4.84996 13.45L12.45 5.86667C12.3666 5.6 12.3333 5.3 12.3333 5C12.3333 3.16667 13.8333 1.66667 15.6666 1.66667C17.5 1.66667 19 3.16667 19 5C19 5.3 18.9666 5.6 18.8833 5.86667L23.1333 10.1167C23.4 10.0333 23.7 10 24 10C24.3 10 24.6 10.0333 24.8666 10.1167L30.7833 4.18333C30.7 3.91667 30.6666 3.63333 30.6666 3.33333C30.6666 1.5 32.1666 0 34 0C35.8333 0 37.3333 1.5 37.3333 3.33333Z" fill="#168EEA"/>
</svg>
