<svg width="24" height="25" viewBox="0 0 24 25" fill="none" xmlns="http://www.w3.org/2000/svg">
<path d="M12.8 21.21C12.32 21.5833 11.64 21.5833 11.16 21.21L2.96003 14.8367C2.48003 14.4633 1.81336 14.4633 1.33336 14.8367C0.653364 15.37 0.653364 16.3967 1.33336 16.93L10.3467 23.9433C11.3067 24.69 12.6534 24.69 13.6267 23.9433L22.64 16.93C23.32 16.3967 23.32 15.37 22.64 14.8367L22.6267 14.8233C22.1467 14.45 21.48 14.45 21 14.8233L12.8 21.21ZM13.64 17.1833L22.6534 10.17C23.3334 9.63666 23.3334 8.59666 22.6534 8.06332L13.64 1.04999C12.68 0.303324 11.3334 0.303324 10.36 1.04999L1.3467 8.07666C0.666698 8.60999 0.666698 9.64999 1.3467 10.1833L10.36 17.1967C11.32 17.9433 12.68 17.9433 13.64 17.1833Z" fill="#FAFAFA" fill-opacity="0.980392"/>
</svg>
