<svg width="25" height="24" viewBox="0 0 25 24" fill="none" xmlns="http://www.w3.org/2000/svg">
<path d="M6.16675 19C6.16675 20.1 7.06675 21 8.16675 21H16.1667C17.2667 21 18.1667 20.1 18.1667 19V9C18.1667 7.9 17.2667 7 16.1667 7H8.16675C7.06675 7 6.16675 7.9 6.16675 9V19ZM18.1667 4H15.6667L14.9567 3.29C14.7767 3.11 14.5167 3 14.2567 3H10.0767C9.81675 3 9.55675 3.11 9.37675 3.29L8.66675 4H6.16675C5.61675 4 5.16675 4.45 5.16675 5C5.16675 5.55 5.61675 6 6.16675 6H18.1667C18.7167 6 19.1667 5.55 19.1667 5C19.1667 4.45 18.7167 4 18.1667 4Z" fill="#D8562B"/>
</svg>
