<svg width="24" height="26" viewBox="0 0 24 26" fill="none" xmlns="http://www.w3.org/2000/svg">
<path d="M23.6667 8.83335C23.6667 8.01669 23.0667 7.35002 22.2667 7.21669C20.1834 6.86669 18.2167 5.75002 16.8834 4.28335L14.7334 1.90002C14.45 1.58335 14.1 1.33335 13.7167 1.15002C13.7 1.15002 13.7 1.13335 13.6834 1.13335H13.6667C13.05 0.783355 12.3667 0.616688 11.5834 0.716688C9.88337 0.916688 8.66671 2.45002 8.66671 4.16669V14C8.66671 15.8334 10.1667 17.3334 12 17.3334H20.3334V24C20.3334 24.9167 21.0834 25.6667 22 25.6667C22.9167 25.6667 23.6667 24.9167 23.6667 24V16.5C23.6667 14.6667 22.1667 13.1667 20.3334 13.1667H15.3334V7.41669C17 8.80002 19.3334 9.98335 21.6667 10.45C22.7 10.6667 23.6667 9.88335 23.6667 8.83335ZM13.3834 19C12.7 20.9334 10.85 22.3334 8.66671 22.3334C5.90004 22.3334 3.66671 20.1 3.66671 17.3334C3.66671 15.15 5.06671 13.3167 7.00004 12.6167V9.16669C3.20004 9.93336 0.333374 13.3 0.333374 17.3334C0.333374 21.9334 4.06671 25.6667 8.66671 25.6667C12.7 25.6667 16.0667 22.8 16.8334 19H13.3834Z" fill="#168EEA"/>
</svg>
