<svg width="40" height="40" viewBox="0 0 40 40" fill="none" xmlns="http://www.w3.org/2000/svg">
<path d="M15 13.75C15 15.8218 13.3218 17.5 11.25 17.5C9.17817 17.5 7.5 15.8218 7.5 13.75C7.5 11.6782 9.17817 10 11.25 10C13.3218 10 15 11.6782 15 13.75Z" fill="#168EEA"/>
<path d="M3.33337 23.611C3.33337 20.6555 8.60787 19.1666 11.25 19.1666C13.8922 19.1666 19.1667 20.6555 19.1667 23.611V30H3.33337V23.611Z" fill="#168EEA"/>
<path d="M32.5 13.75C32.5 15.8218 30.8219 17.5 28.75 17.5C26.6782 17.5 25 15.8218 25 13.75C25 11.6782 26.6782 10 28.75 10C30.8219 10 32.5 11.6782 32.5 13.75Z" fill="#168EEA"/>
<path d="M22.5 12.5C22.5 13.8812 21.3812 15 20 15C18.6187 15 17.5 13.8812 17.5 12.5C17.5 11.1187 18.6187 10 20 10C21.3812 10 22.5 11.1187 22.5 12.5Z" fill="#168EEA"/>
<path d="M20.8334 23.611C20.8334 20.6555 26.1079 19.1666 28.75 19.1666C31.3922 19.1666 36.6667 20.6555 36.6667 23.611V30H20.8334V23.611Z" fill="#168EEA"/>
<path fill-rule="evenodd" clip-rule="evenodd" d="M23.959 18.4875C23.7366 18.5692 23.5171 18.6561 23.3021 18.7479C22.3261 19.165 21.3406 19.7284 20.575 20.4821C20.37 20.684 20.1754 20.9053 20 21.1458C19.8246 20.9053 19.63 20.684 19.4249 20.4821C18.6593 19.7284 17.6737 19.165 16.6978 18.7479C16.4828 18.6561 16.2634 18.5692 16.0409 18.4875C17.3097 17.8301 18.9415 17.5 20 17.5C21.0584 17.5 22.6901 17.8301 23.959 18.4875Z" fill="#168EEA"/>
</svg>
