<svg width="34" height="34" viewBox="0 0 34 34" fill="none" xmlns="http://www.w3.org/2000/svg">
<path d="M23.6667 3.66671C23.6667 1.81671 25.15 0.333374 27 0.333374C28.85 0.333374 30.3334 1.81671 30.3334 3.66671C30.3334 5.51671 28.85 7.00004 27 7.00004C25.15 7.00004 23.6667 5.51671 23.6667 3.66671ZM30.3334 32V23.6667H32.1834C33.3167 23.6667 34.1167 22.55 33.7667 21.4667L30.2667 10.95C29.8 9.58337 28.5334 8.66671 27.1 8.66671H26.9C25.4667 8.66671 24.1834 9.58337 23.7334 10.95L22.3 15.25C24.1 16.25 25.3334 18.1334 25.3334 20.3334V33.6667H28.6667C29.5834 33.6667 30.3334 32.9167 30.3334 32ZM17.8334 16.1667C19.2167 16.1667 20.3334 15.05 20.3334 13.6667C20.3334 12.2834 19.2167 11.1667 17.8334 11.1667C16.45 11.1667 15.3334 12.2834 15.3334 13.6667C15.3334 15.05 16.45 16.1667 17.8334 16.1667ZM6.16671 7.00004C8.01671 7.00004 9.50004 5.51671 9.50004 3.66671C9.50004 1.81671 8.01671 0.333374 6.16671 0.333374C4.31671 0.333374 2.83337 1.81671 2.83337 3.66671C2.83337 5.51671 4.31671 7.00004 6.16671 7.00004ZM9.50004 32V22H10.3334C11.25 22 12 21.25 12 20.3334V12C12 10.1667 10.5 8.66671 8.66671 8.66671H3.66671C1.83337 8.66671 0.333374 10.1667 0.333374 12V20.3334C0.333374 21.25 1.08337 22 2.00004 22H2.83337V32C2.83337 32.9167 3.58337 33.6667 4.50004 33.6667H7.83337C8.75004 33.6667 9.50004 32.9167 9.50004 32ZM13.6667 20.3334V25.3334C13.6667 26.25 14.4167 27 15.3334 27V32C15.3334 32.9167 16.0834 33.6667 17 33.6667H18.6667C19.5834 33.6667 20.3334 32.9167 20.3334 32V27C21.25 27 22 26.25 22 25.3334V20.3334C22 18.9667 20.8667 17.8334 19.5 17.8334H16.1667C14.8 17.8334 13.6667 18.9667 13.6667 20.3334Z" fill="#168EEA"/>
</svg>
