<svg width="40" height="40" viewBox="0 0 40 40" fill="none" xmlns="http://www.w3.org/2000/svg">
<path fill-rule="evenodd" clip-rule="evenodd" d="M27.6162 11.4002C29.3836 11.4002 30.8163 9.96742 30.8163 8.20007C30.8163 6.43272 29.3836 5 27.6162 5C25.8488 5 24.4162 6.43272 24.4162 8.20007C24.4162 9.96742 25.8488 11.4002 27.6162 11.4002ZM30.6508 12.1771C31.1237 12.0983 31.5999 12.2968 31.8768 12.6881L34.7704 16.7783C35.0965 17.2393 35.0732 17.8616 34.7133 18.2968L31.8197 21.7966C31.3798 22.3286 30.5918 22.4033 30.0598 21.9634C29.5278 21.5235 29.453 20.7356 29.8929 20.2036L30.8705 19.0213C30.842 18.8798 30.7945 18.7398 30.7268 18.6046C30.6636 18.478 30.5863 18.363 30.4979 18.2604C31.3072 18.1702 31.9363 17.4838 31.9363 16.6505C31.9363 15.7558 31.211 15.0305 30.3163 15.0305C29.4216 15.0305 28.6963 15.7558 28.6963 16.6505C28.6963 16.9753 28.7918 17.2778 28.9564 17.5313L27.4612 17.028L27.4611 16.0267C27.461 15.5664 27.0878 15.1934 26.6276 15.1935C26.1674 15.1935 25.7943 15.5667 25.7944 16.0269L25.7946 17.6269C25.7947 17.9847 26.023 18.3025 26.3621 18.4167L26.9681 18.6206L25.2508 19.4792C25.028 19.5907 24.8411 19.7452 24.695 19.9277L26.1963 21.8243C26.6248 22.3656 26.5333 23.1518 25.992 23.5803C25.4507 24.0087 24.6645 23.9172 24.2361 23.3759L21.2361 19.5859C20.9349 19.2055 20.8812 18.6851 21.0982 18.2511L23.0684 14.3106C23.3665 13.7144 23.9318 13.2969 24.5893 13.1873L30.6508 12.1771Z" fill="#168EEA"/>
<path fill-rule="evenodd" clip-rule="evenodd" d="M23.4057 24.2785C23.724 24.9591 24.4149 25.4307 25.216 25.4307C26.3191 25.4307 27.2132 24.5365 27.2133 23.4335H27.2161C27.9155 23.4335 28.5683 23.2341 29.1207 22.889C29.4734 23.4542 30.1008 23.8303 30.8161 23.8303C31.3196 23.8303 31.7796 23.644 32.1308 23.3365C32.7667 25.8973 33.3911 27.7647 33.7772 28.8221C33.9645 29.3349 33.6393 29.907 33.0973 29.9722C29.7836 30.3707 25.9485 30.38 22.6439 29.965C22.1317 29.9006 21.8161 29.3805 21.9766 28.8898C22.3271 27.8177 22.9132 25.9891 23.4057 24.2785Z" fill="#168EEA"/>
<path fill-rule="evenodd" clip-rule="evenodd" d="M23.3334 31.6781V33.7498C23.3334 34.3766 23.7976 34.9065 24.419 34.989C25.0405 35.0713 25.6268 34.6807 25.7902 34.0755L26.3519 31.995C25.3866 31.9412 24.396 31.836 23.3334 31.6781ZM29.4798 31.9885L30.0432 34.0755C30.2066 34.6807 30.793 35.0713 31.4144 34.989C32.0358 34.9065 32.5 34.3766 32.5 33.7498V31.6666C31.4369 31.8235 30.4456 31.9312 29.4798 31.9885Z" fill="#168EEA"/>
<path fill-rule="evenodd" clip-rule="evenodd" d="M19.0439 24.2907C19.7149 24.1284 20.1273 23.4529 19.965 22.7819C19.8027 22.1109 19.1272 21.6985 18.4561 21.8607C16.0723 22.4373 14.274 22.6967 12.5045 22.6901C10.7317 22.6835 8.92879 22.4099 6.53054 21.8577C5.85779 21.7027 5.18684 22.1225 5.03191 22.7952C4.87699 23.468 5.29678 24.1389 5.96953 24.2938C7.39056 24.6211 8.65529 24.8648 9.85888 25.0148V28.6267C9.85138 28.6615 9.84538 28.6969 9.84088 28.7328L9.22979 33.5941C9.14555 34.2642 9.60888 34.8801 10.2761 34.9848C10.9434 35.0896 11.5732 34.6453 11.6984 33.9816L12.6089 29.153L13.5194 33.9816C13.6445 34.6453 14.2744 35.0896 14.9416 34.9848C15.6089 34.8801 16.0722 34.2642 15.988 33.5941L15.3769 28.7328C15.3724 28.6968 15.3663 28.6613 15.3589 28.6264V25.0022C16.4999 24.853 17.7015 24.6154 19.0439 24.2907Z" fill="#168EEA"/>
<path d="M15 19.1666C15 20.5474 13.8807 21.6666 12.5 21.6666C11.1192 21.6666 10 20.5474 10 19.1666C10 17.7859 11.1192 16.6666 12.5 16.6666C13.8807 16.6666 15 17.7859 15 19.1666Z" fill="#168EEA"/>
</svg>
