<svg width="30" height="34" viewBox="0 0 30 34" fill="none" xmlns="http://www.w3.org/2000/svg">
<path d="M15 0.333374C7.63667 0.333374 1.66667 6.30337 1.66667 13.6667V15.3334V16.8373C0.710485 17.7491 0 18.9219 0 20.3334C0 22.4033 1.42925 23.9382 3.23893 24.6888C5.40732 29.8719 9.75039 33.6667 15 33.6667C20.2496 33.6667 24.5927 29.8719 26.7611 24.6888C28.5707 23.9382 30 22.4033 30 20.3334C30 18.9219 29.2895 17.7491 28.3333 16.8373V15.3334V13.6667C28.3333 6.30337 22.3633 0.333374 15 0.333374ZM6.66667 13.6667H23.3333C24.2533 13.6667 25 14.4134 25 15.3334V17V17.4525C25 17.7457 25.0774 18.0337 25.2242 18.2875C25.3711 18.5413 25.5823 18.7518 25.8366 18.8978C26.3427 19.1883 26.6667 19.6917 26.6667 20.3334C26.6667 21.1919 26.0519 21.8546 25.2311 21.9675C24.935 22.0078 24.6552 22.127 24.421 22.3125C24.1868 22.4981 24.0067 22.7432 23.8997 23.0222C22.1817 27.4992 18.7641 30.3334 15 30.3334C11.2359 30.3334 7.81826 27.4992 6.10026 23.0222C5.99325 22.7432 5.81321 22.4981 5.57899 22.3125C5.34476 22.127 5.06496 22.0078 4.76888 21.9675C3.94805 21.8546 3.33333 21.1919 3.33333 20.3334C3.33333 19.6917 3.65735 19.1883 4.16341 18.8978C4.41766 18.7518 4.62888 18.5413 4.77576 18.2875C4.92265 18.0337 4.99999 17.7457 5 17.4525V17V15.3334C5 14.4134 5.74667 13.6667 6.66667 13.6667Z" fill="#168EEA"/>
</svg>
