<svg width="40" height="40" viewBox="0 0 40 40" fill="none" xmlns="http://www.w3.org/2000/svg">
<path fill-rule="evenodd" clip-rule="evenodd" d="M28.3333 13.3333C28.3333 17.9357 24.6023 21.6667 20 21.6667C15.3976 21.6667 11.6666 17.9357 11.6666 13.3333C11.6666 8.731 15.3976 5 20 5C24.6023 5 28.3333 8.731 28.3333 13.3333ZM26.6666 13.3333C26.6666 17.0153 23.6819 20 20 20C16.318 20 13.3333 17.0153 13.3333 13.3333C13.3333 9.65142 16.318 6.66667 20 6.66667C23.6819 6.66667 26.6666 9.65142 26.6666 13.3333Z" fill="#168EEA"/>
<path d="M25.4167 23.3333C25.2404 23.2903 25.0516 23.3769 24.966 23.5512L21.6667 32.9763V30L21.188 26.6488C21.4951 26.5841 21.746 26.3495 21.8245 26.0354L22.2412 24.3687C22.3727 23.8428 21.9749 23.3333 21.4327 23.3333H18.5674C18.0252 23.3333 17.6274 23.8428 17.7589 24.3687L18.1755 26.0354C18.254 26.3495 18.505 26.5841 18.8121 26.6488L18.3334 30V32.2469L15.0341 23.5512C14.9485 23.3769 14.7597 23.2903 14.5834 23.3333C14.2845 23.4062 13.9626 23.4815 13.6268 23.5601C11.7417 24.0012 9.41204 24.5464 8.17337 25.3597C6.70449 26.3242 5.83337 27.4612 5.83337 28.75V34.1666H34.1667V28.75C34.1667 27.4612 33.2956 26.3242 31.8267 25.3597C30.588 24.5464 28.2583 24.0012 26.3732 23.56C26.0374 23.4815 25.7156 23.4062 25.4167 23.3333Z" fill="#168EEA"/>
</svg>
