<svg width="40" height="41" viewBox="0 0 40 41" fill="none" xmlns="http://www.w3.org/2000/svg">
<path fill-rule="evenodd" clip-rule="evenodd" d="M27.555 18.6068C27.1439 17.7974 26.256 17.3473 25.3601 17.4943L14.3164 19.3064C13.3994 19.4568 12.609 20.0353 12.1881 20.8638L8.55921 28.0089C8.20514 28.7061 8.27126 29.5429 8.73046 30.1758L13.5057 36.7574C14.1814 37.6886 15.4841 37.8958 16.4154 37.2201C17.3467 36.5444 17.5539 35.2417 16.8782 34.3104L15.471 32.3709C15.5729 31.887 15.888 31.4532 16.366 31.2179L19.0587 29.8925L16.366 28.567C15.7962 28.2866 15.4353 27.7068 15.4353 27.0717V23.7809C15.4353 22.8604 16.1815 22.1143 17.102 22.1143C18.0225 22.1143 18.7686 22.8604 18.7686 23.7809V26.0344L23.5683 28.397C23.8872 28.5537 24.1587 28.8131 24.3277 29.1565C24.635 29.7806 24.5159 30.5036 24.0829 30.9951L24.1004 30.9908L23.0562 32.4299C22.3805 33.3613 22.5877 34.6639 23.519 35.3397C24.4503 36.0154 25.753 35.8082 26.4287 34.8769L31.2039 28.2954C31.6631 27.6624 31.7292 26.8257 31.3751 26.1285L27.555 18.6068ZM28.3334 24.5499C28.3334 26.1608 27.0275 27.4666 25.4167 27.4666C23.8059 27.4666 22.5 26.1608 22.5 24.5499C22.5 22.9391 23.8059 21.6333 25.4167 21.6333C27.0275 21.6333 28.3334 22.9391 28.3334 24.5499Z" fill="#168EEA"/>
<path d="M25.8333 9.9667C25.8333 13.1884 23.2216 15.8 20 15.8C16.7783 15.8 14.1666 13.1884 14.1666 9.9667C14.1666 6.74504 16.7783 4.13336 20 4.13336C23.2216 4.13336 25.8333 6.74504 25.8333 9.9667Z" fill="#168EEA"/>
</svg>
