<svg width="34" height="34" viewBox="0 0 34 34" fill="none" xmlns="http://www.w3.org/2000/svg">
<path d="M17 0.133362C10.655 0.133362 1.29003 4.66188 0.401701 26.6535C0.325035 28.5452 1.84662 30.1334 3.73829 30.1334H8.2142C10.5643 32.2014 13.6359 33.4667 17 33.4667C20.3641 33.4667 23.4357 32.2014 25.7858 30.1334H30.2617C32.1534 30.1334 33.6766 28.5452 33.6016 26.6535C32.7116 4.66188 23.345 0.133362 17 0.133362ZM10.3333 15.1334H23.6667C25.5083 15.1334 27 16.625 27 18.4667V20.1334C27 25.676 22.5426 30.1334 17 30.1334C11.4574 30.1334 7.00001 25.676 7.00001 20.1334V18.4667C7.00001 16.625 8.49168 15.1334 10.3333 15.1334Z" fill="#168EEA"/>
</svg>
