<svg width="20" height="27" viewBox="0 0 20 27" fill="none" xmlns="http://www.w3.org/2000/svg">
<path d="M9.99996 0.130005C4.83996 0.130005 0.666626 4.30334 0.666626 9.46334C0.666626 15.0233 6.55996 22.69 8.98662 25.61C9.51996 26.25 10.4933 26.25 11.0266 25.61C13.44 22.69 19.3333 15.0233 19.3333 9.46334C19.3333 4.30334 15.16 0.130005 9.99996 0.130005ZM9.99996 12.7967C8.15996 12.7967 6.66663 11.3033 6.66663 9.46334C6.66663 7.62334 8.15996 6.13 9.99996 6.13C11.84 6.13 13.3333 7.62334 13.3333 9.46334C13.3333 11.3033 11.84 12.7967 9.99996 12.7967Z" fill="#7F838C"/>
</svg>
