<svg width="20" height="26" viewBox="0 0 20 26" fill="none" xmlns="http://www.w3.org/2000/svg">
<path d="M10.0001 0C4.84008 0 0.666748 4.17333 0.666748 9.33333C0.666748 14.8933 6.56008 22.56 8.98675 25.48C9.52008 26.12 10.4934 26.12 11.0267 25.48C13.4401 22.56 19.3334 14.8933 19.3334 9.33333C19.3334 4.17333 15.1601 0 10.0001 0ZM10.0001 12.6667C8.16008 12.6667 6.66675 11.1733 6.66675 9.33333C6.66675 7.49333 8.16008 6 10.0001 6C11.8401 6 13.3334 7.49333 13.3334 9.33333C13.3334 11.1733 11.8401 12.6667 10.0001 12.6667Z" fill="#FAFAFA" fill-opacity="0.980392"/>
</svg>
