<svg width="29" height="34" viewBox="0 0 29 34" fill="none" xmlns="http://www.w3.org/2000/svg">
<path d="M5.83333 0.333313C7.66667 0.333313 9.16667 1.83331 9.16667 3.66665C9.16667 5.49998 7.66667 6.99998 5.83333 6.99998C4 6.99998 2.5 5.49998 2.5 3.66665C2.5 1.83331 4 0.333313 5.83333 0.333313ZM20.8333 12.8333C20.8333 14.2166 21.95 15.3333 23.3333 15.3333C24.7167 15.3333 25.8333 14.2166 25.8333 12.8333C25.8333 11.45 24.7167 10.3333 23.3333 10.3333C21.95 10.3333 20.8333 11.45 20.8333 12.8333ZM25.8333 17H21.1C20.1333 17.0166 19.2 17.5333 18.6833 18.4333L17.15 20.6333L11.2 10.3333C10.5833 9.28331 9.48333 8.68331 8.35 8.66665H3.33333C1.5 8.66665 0 10.1666 0 12V20.3333C0 21.25 0.75 22 1.66667 22H2.5V32C2.5 32.9166 3.25 33.6666 4.16667 33.6666H9.16667C10.0833 33.6666 10.8333 32.9166 10.8333 32V16.35L14.5667 22.8333C14.8667 23.35 15.4167 23.6666 16.0167 23.6666H17.85C18.4 23.6666 18.9 23.4 19.2167 22.95L20 21.8333V32C20 32.9166 20.75 33.6666 21.6667 33.6666H25C25.9167 33.6666 26.6667 32.9166 26.6667 32V25.3333C27.5833 25.3333 28.3333 24.5833 28.3333 23.6666V19.5C28.3333 18.1333 27.2167 17 25.8333 17Z" fill="#168EEA"/>
</svg>
