<svg width="40" height="40" viewBox="0 0 40 40" fill="none" xmlns="http://www.w3.org/2000/svg">
<path d="M24.1667 6.66665C24.1667 8.50756 22.6742 9.99998 20.8333 9.99998C18.9924 9.99998 17.5 8.50756 17.5 6.66665C17.5 4.8257 18.9924 3.33331 20.8333 3.33331C22.6742 3.33331 24.1667 4.8257 24.1667 6.66665Z" fill="#168EEA"/>
<path fill-rule="evenodd" clip-rule="evenodd" d="M18.0428 22.8915C17.801 22.8489 17.5649 22.752 17.353 22.5979L12.7697 19.2646C12.0577 18.7468 11.8712 17.7646 12.3439 17.0219L13.7499 17.9167C12.3439 17.0219 12.3439 17.0218 12.344 17.0216L12.3444 17.0212L12.3451 17.02L12.3474 17.0164L12.355 17.0044L12.3827 16.9614C12.4064 16.9246 12.4406 16.872 12.484 16.8057C12.5709 16.6733 12.6953 16.4859 12.8482 16.2617C13.1524 15.8154 13.5762 15.2135 14.0457 14.6059C14.5078 14.008 15.0484 13.3594 15.5862 12.8451C15.8535 12.5894 16.1609 12.3272 16.4918 12.1193C16.7877 11.9332 17.2936 11.6667 17.9166 11.6667H17.9239H17.9313H17.9385H17.9458H17.953H17.9602H17.9674H17.9746H17.9818H17.9889H17.996H18.0031H18.0103H18.0173H18.0244H18.0314H18.0384H18.0454H18.0524H18.0594H18.0663H18.0732H18.0801H18.0869H18.0939H18.1007H18.1075H18.1143H18.1211H18.1279H18.1346H18.1414H18.148H18.1548H18.1614H18.1681H18.1747H18.1814H18.1879H18.1945H18.2011H18.2076H18.2142H18.2207H18.2272H18.2337H18.2401H18.2465H18.2529H18.2594H18.2658H18.2721H18.2784H18.2848H18.2911H18.2974H18.3037H18.3099H18.3162H18.3224H18.3286H18.3348H18.3409H18.3471H18.3533H18.3594H18.3654H18.3715H18.3776H18.3837H18.3897H18.3957H18.4017H18.4077H18.4136H18.4195H18.4254H18.4314H18.4373H18.4431H18.4489H18.4548H18.4606H18.4664H18.4722H18.4779H18.4837H18.4894H18.4951H18.5009H18.5065H18.5122H18.5178H18.5234H18.529H18.5346H18.5402H18.5457H18.5513H18.5568H18.5623H18.5678H18.5733H18.5787H18.5841H18.5895H18.5949H18.6003H18.6057H18.611H18.6164H18.6217H18.6269H18.6323H18.6375H18.6428H18.6479H18.6532H18.6584H18.6635H18.6687H18.6739H18.679H18.6841H18.6892H18.6943H18.6994H18.7044H18.7094H18.7144H18.7194H18.7244H18.7294H18.7343H18.7392H18.7441H18.749H18.7539H18.7588H18.7636H18.7684H18.7733H18.778H18.7829H18.7876H18.7924H18.797H18.8018H18.8064H18.8112H18.8159H18.8204H18.8251H18.8297H18.8344H18.8389H18.8434H18.848H18.8525H18.8571H18.8616H18.866H18.8705H18.875H18.8794H18.8839H18.8883H18.8926H18.897H18.9014H18.9057H18.91H18.9144H18.9187H18.9229H18.9272H18.9314H18.9357H18.9399H18.9441H18.9483H18.9524H18.9566H18.9608H18.9649H18.9689H18.973H18.9771H18.9812H18.9853H18.9893H18.9933H18.9973H19.0013H19.0052H19.0092H19.0131H19.017H19.0209H19.0249H19.0287H19.0326H19.0364H19.0403H19.044H19.0479H19.0516H19.0554H19.0592H19.0629H19.0666H19.0704H19.074H19.0777H19.0814H19.085H19.0886H19.0923H19.0959H19.0994H19.103H19.1065H19.1101H19.1136H19.1171H19.1206H19.1241H19.1276H19.131H19.1344H19.1379H19.1413H19.1447H19.1481H19.1514H19.1548H19.1581H19.1614H19.1648H19.168H19.1713H19.1746H19.1779H19.181H19.1843H19.1874H19.1907H19.1939H19.197H19.2001H19.2033H19.2064H19.2095H19.2126H19.2156H19.2187H19.2218H19.2248H19.2278H19.2308H19.2338H19.2368H19.2397H19.2427H19.2456H19.2485H19.2514H19.2543H19.2572H19.26H19.2629H19.2657H19.2685H19.2714H19.2741H19.2769H19.2797H19.2824H19.2852H19.2879H19.2906H19.2933H19.2959H19.2986H19.3013H19.3039H19.3065H19.3091H19.3118H19.3144H19.3169H19.3194H19.322H19.3245H19.327H19.3295H19.332H19.3345H19.3369H19.3394H19.3419H19.3443H19.3467H19.349H19.3514H19.3538H19.3562H19.3585H19.3609H19.3631H19.3654H19.3677H19.37H19.3723H19.3745H19.3768H19.3789H19.3812H19.3834H19.3855H19.3877H19.3899H19.392H19.3941H19.3963H19.3984H19.4004H19.4025H19.4046H19.4066H19.4087H19.4107H19.4127H19.4147H19.4167H19.4187H19.4206H19.4226H19.4245H19.4264H19.4284H19.4302H19.4321H19.434H19.4359H19.4377H19.4395H19.4414H19.4432H19.4449H19.4468H19.4485H19.4503H19.452H19.4538H19.4554H19.4572H19.4589H19.4605H19.4622H19.4639H19.4655H19.4672H19.4688H19.4704H19.472H19.4736H19.4751H19.4767H19.4783H19.4798H19.4813H19.4829H19.4844H19.4858H19.4873H19.4888H19.4902H19.4916H19.4931H19.4944H19.4959H19.4973H19.4987H19.5H19.5014H19.5027H19.504H19.5054H19.5067H19.5079H19.5093H19.5105H19.5118H19.513H19.5143H19.5155H19.5167H19.5179H19.5191H19.5203H19.5214H19.5226H19.5238H19.5249H19.526H19.5271H19.5282H19.5293H19.5304H19.5314H19.5325H19.5335H19.5346H19.5356H19.5366H19.5376H19.5386H19.5395H19.5405H19.5414H19.5424H19.5434H19.5443H19.5452H19.546H19.5469H19.5478H19.5487H19.5495H19.5504H19.5512H19.552H19.5528H19.5536H19.5544H19.5552H19.5559H19.5567H19.5574H19.5581H19.5589H19.5596H19.5603H19.5609H19.5616H19.5623H19.5629H19.5636H19.5642H19.5649H19.5654H19.566H19.5666H19.5672H19.5678H19.5684H19.5689H19.5694H19.5699H19.5704H19.5709H19.5714H19.5719H19.5724H19.5729H19.5734H19.5738H19.5742H19.5746H19.575H19.5754H19.5759H19.5763H19.5766H19.5769H19.5774H19.5777H19.578H19.5783H19.5786H19.5789H19.5792H19.5795H19.5798H19.58H19.5803H19.5805H19.5807H19.5809H19.5812H19.5814H19.5815H19.5817H19.5819H19.582H19.5822H19.5824H19.5824H19.5826H19.5827H19.5828H19.5829H19.583H19.5831H19.5832H19.5833C19.9355 11.6667 20.2787 11.7783 20.5636 11.9854L19.5833 13.3334C20.5636 11.9854 20.5639 11.9857 20.5642 11.9859L20.5649 11.9864L20.5666 11.9877L20.5714 11.9912L20.5859 12.0018L20.6339 12.0375C20.6743 12.0677 20.7309 12.1106 20.8021 12.1655C20.9444 12.2754 21.1449 12.4339 21.3889 12.6359C21.8757 13.0393 22.5406 13.6212 23.2618 14.3424C24.6785 15.759 26.4244 17.8234 27.3808 20.2144C27.9347 21.5993 27.9484 22.8982 27.5039 24.0416C27.0764 25.1407 26.2938 25.921 25.5636 26.4521C24.8296 26.9859 24.0572 27.3351 23.4934 27.5484C23.2586 27.6373 23.051 27.7059 22.8851 27.7566L21.6666 34.1667V35C21.6666 35.9205 20.9204 36.6667 19.9999 36.6667C19.0794 36.6667 18.3333 35.9205 18.3333 35V34.1667C18.3333 29.2874 18.3308 26.1189 18.0428 22.8915ZM17.4942 18.5789C17.3705 17.8161 17.2285 17.0166 17.0656 16.1637C16.9394 16.3174 16.8114 16.4784 16.6834 16.6441C16.4537 16.9414 16.2339 17.2404 16.0356 17.5181L17.4942 18.5789Z" fill="#168EEA"/>
</svg>
