<svg width="14" height="34" viewBox="0 0 14 34" fill="none" xmlns="http://www.w3.org/2000/svg">
<path d="M2.00004 3.66665C2.00004 1.81665 3.48337 0.333313 5.33337 0.333313C7.18337 0.333313 8.66671 1.81665 8.66671 3.66665C8.66671 5.51665 7.18337 6.99998 5.33337 6.99998C3.48337 6.99998 2.00004 5.51665 2.00004 3.66665ZM13.6667 18.6666C13.65 16.4333 12.2834 14.4833 10.3334 13.6666C10.3334 10.8166 7.96671 8.53331 5.06671 8.66665C2.36671 8.81665 0.333374 11.2333 0.333374 13.9333V23.6666C0.333374 24.5833 1.08337 25.3333 2.00004 25.3333H3.66671V31.1666C3.66671 32.55 4.78337 33.6666 6.16671 33.6666C7.55004 33.6666 8.66671 32.55 8.66671 31.1666V25.3333H12C12.9167 25.3333 13.6667 24.5833 13.6667 23.6666V18.6666Z" fill="#168EEA"/>
</svg>
