<svg width="24" height="25" viewBox="0 0 24 25" fill="none" xmlns="http://www.w3.org/2000/svg">
<path d="M21.3333 0.130005H2.66667C1.2 0.130005 0 1.33 0 2.79667V21.4633C0 22.93 1.2 24.13 2.66667 24.13H21.3333C22.8 24.13 24 22.93 24 21.4633V2.79667C24 1.33 22.8 0.130005 21.3333 0.130005ZM13.3333 18.7967H6.66667C5.93333 18.7967 5.33333 18.1967 5.33333 17.4633C5.33333 16.73 5.93333 16.13 6.66667 16.13H13.3333C14.0667 16.13 14.6667 16.73 14.6667 17.4633C14.6667 18.1967 14.0667 18.7967 13.3333 18.7967ZM17.3333 13.4633H6.66667C5.93333 13.4633 5.33333 12.8633 5.33333 12.13C5.33333 11.3967 5.93333 10.7967 6.66667 10.7967H17.3333C18.0667 10.7967 18.6667 11.3967 18.6667 12.13C18.6667 12.8633 18.0667 13.4633 17.3333 13.4633ZM17.3333 8.13H6.66667C5.93333 8.13 5.33333 7.53 5.33333 6.79667C5.33333 6.06334 5.93333 5.46334 6.66667 5.46334H17.3333C18.0667 5.46334 18.6667 6.06334 18.6667 6.79667C18.6667 7.53 18.0667 8.13 17.3333 8.13Z" fill="#168EEA"/>
</svg>
