<svg width="24" height="28" viewBox="0 0 24 28" fill="none" xmlns="http://www.w3.org/2000/svg">
<path d="M21.3333 3.33329H20V1.99996C20 1.26663 19.4 0.666626 18.6667 0.666626C17.9333 0.666626 17.3333 1.26663 17.3333 1.99996V3.33329H6.66667V1.99996C6.66667 1.26663 6.06667 0.666626 5.33333 0.666626C4.6 0.666626 4 1.26663 4 1.99996V3.33329H2.66667C1.18667 3.33329 0.0133333 4.53329 0.0133333 5.99996L0 24.6666C0 26.1333 1.18667 27.3333 2.66667 27.3333H21.3333C22.8 27.3333 24 26.1333 24 24.6666V5.99996C24 4.53329 22.8 3.33329 21.3333 3.33329ZM21.3333 23.3333C21.3333 24.0666 20.7333 24.6666 20 24.6666H4C3.26667 24.6666 2.66667 24.0666 2.66667 23.3333V9.99996H21.3333V23.3333ZM5.33333 12.6666H8V15.3333H5.33333V12.6666ZM10.6667 12.6666H13.3333V15.3333H10.6667V12.6666ZM16 12.6666H18.6667V15.3333H16V12.6666Z" fill="#168EEA"/>
</svg>
