<svg width="40" height="42" viewBox="0 0 40 42" fill="none" xmlns="http://www.w3.org/2000/svg">
<path d="M20 15.375C22.5312 15.375 24.5833 13.323 24.5833 10.7917C24.5833 8.2604 22.5312 6.20837 20 6.20837C17.4686 6.20837 15.4166 8.2604 15.4166 10.7917C15.4166 13.323 17.4686 15.375 20 15.375Z" fill="#168EEA"/>
<path d="M24.1666 19.9882C25.5854 19.783 27.0796 19.4751 28.7336 19.0659C29.6271 18.8449 30.1723 17.9413 29.9512 17.0478C29.7302 16.1543 28.8267 15.6091 27.9331 15.8302C24.756 16.6161 22.3613 16.969 20.0062 16.9601C17.6463 16.9511 15.2454 16.5786 12.0487 15.8258C11.1528 15.6148 10.2554 16.17 10.0444 17.066C9.83339 17.9619 10.3886 18.8593 11.2846 19.0703C12.9298 19.4578 14.4184 19.7595 15.8333 19.9663V22.0418H24.1666V19.9882Z" fill="#168EEA"/>
<path fill-rule="evenodd" clip-rule="evenodd" d="M22.2328 27.858C23.6913 27.2085 24.1666 25.853 24.1666 25.3254V23.7084H15.8333V25.3254C15.8333 25.853 16.3086 27.2085 17.7671 27.858C17.934 27.9324 18.1216 28.0255 18.2902 28.1092L18.3894 28.1585C18.5967 28.2609 18.7972 28.3577 18.9999 28.4436C19.4228 28.6228 19.7528 28.7084 19.9999 28.7084C20.2472 28.7084 20.577 28.6228 20.9999 28.4436C21.2028 28.3577 21.4033 28.2609 21.6104 28.1585L21.7097 28.1093M22.2328 27.858C22.0659 27.9324 21.8783 28.0255 21.7097 28.1093L22.2328 27.858Z" fill="#168EEA"/>
<path d="M17.029 29.422C16.0438 28.9743 15.3821 28.2976 14.9841 27.6246C13.6911 28.7501 12.979 30.1654 12.979 32.033C12.979 32.7779 13.1383 33.8956 13.5525 34.8015C13.9766 35.7291 14.5459 36.2084 15.2655 36.2084C16.0377 36.2084 16.6913 35.6175 16.6913 34.857C16.6913 34.5186 16.5481 34.1987 16.3216 33.7231L16.3066 33.6917C16.1013 33.2614 15.8304 32.6933 15.8304 32.033C15.8304 31.3106 16.1887 30.544 16.6055 29.9233C16.7394 29.7241 16.881 29.5619 17.029 29.422Z" fill="#168EEA"/>
<path d="M22.9709 29.4218C23.956 28.9742 24.6178 28.2974 25.0159 27.6245C26.3089 28.7499 27.021 30.1653 27.021 32.0329C27.021 32.7778 26.8616 33.8956 26.4475 34.8014C26.0234 35.7291 25.454 36.2083 24.7344 36.2083C23.9623 36.2083 23.3087 35.6174 23.3087 34.8569C23.3087 34.5186 23.4519 34.1987 23.6784 33.7231L23.6934 33.6917C23.8986 33.2613 24.1695 32.6933 24.1695 32.0329C24.1695 31.3106 23.8114 30.5439 23.3944 29.9233C23.2605 29.7239 23.1189 29.5618 22.9709 29.4218Z" fill="#168EEA"/>
</svg>
