<svg width="41" height="41" viewBox="0 0 41 41" fill="none" xmlns="http://www.w3.org/2000/svg">
<path fill-rule="evenodd" clip-rule="evenodd" d="M20.3333 14.5833C21.9441 14.5833 23.25 13.2775 23.25 11.6667C23.25 10.0558 21.9441 8.75 20.3333 8.75C18.7225 8.75 17.4166 10.0558 17.4166 11.6667C17.4166 13.2775 18.7225 14.5833 20.3333 14.5833ZM29.0896 18.2684C29.9799 18.0349 30.5124 17.1238 30.2788 16.2334C30.0453 15.3431 29.1342 14.8106 28.2439 15.0442C25.0703 15.8766 22.6838 16.2489 20.3399 16.2394C17.9909 16.23 15.5979 15.8369 12.4039 15.0392C11.5108 14.8162 10.6061 15.3594 10.3831 16.2525C10.1601 17.1455 10.7032 18.0502 11.5962 18.2733C13.1371 18.6581 14.5419 18.9635 15.8785 19.1814C15.6158 20.9322 14.2159 23.8142 13.4087 25.3696C13.1383 25.8906 13.463 26.5321 14.0453 26.6058C18.9923 27.2327 22.1214 27.2489 26.6741 26.6156C27.2416 26.5367 27.5581 25.9177 27.3024 25.4051C26.5161 23.829 25.1024 20.8458 24.8021 19.2026C26.1388 18.9854 27.5452 18.6735 29.0896 18.2684Z" fill="#168EEA"/>
<path fill-rule="evenodd" clip-rule="evenodd" d="M16.1666 27.9281V30.8333C16.1666 31.4601 16.631 31.9901 17.2523 32.0725C17.8737 32.1549 18.46 31.7643 18.6235 31.1591L19.4071 28.2564C18.3716 28.207 17.3108 28.0981 16.1666 27.9281ZM22.0914 28.2507L22.8765 31.1591C23.0399 31.7643 23.6262 32.1549 24.2476 32.0725C24.869 31.9901 25.3333 31.4601 25.3333 30.8333V27.9166C24.1886 28.0856 23.1274 28.1974 22.0914 28.2507Z" fill="#168EEA"/>
</svg>
