<svg width="30" height="34" viewBox="0 0 30 34" fill="none" xmlns="http://www.w3.org/2000/svg">
<path d="M29.5833 8.65004C29.35 7.73337 28.4333 7.20004 27.5167 7.40004C23.55 8.28337 19.1333 8.66671 15 8.66671C10.8667 8.66671 6.45 8.28337 2.48333 7.40004C1.56667 7.20004 0.65 7.73337 0.416667 8.65004C0.183333 9.58337 0.75 10.5334 1.66667 10.75C4.35 11.35 7.25 11.7667 10 12V32C10 32.9167 10.75 33.6667 11.6667 33.6667C12.5833 33.6667 13.3333 32.9167 13.3333 32V23.6667H16.6667V32C16.6667 32.9167 17.4167 33.6667 18.3333 33.6667C19.25 33.6667 20 32.9167 20 32V12C22.75 11.7667 25.65 11.35 28.3167 10.75C29.25 10.5334 29.8167 9.58337 29.5833 8.65004ZM15 7.00004C16.8333 7.00004 18.3333 5.50004 18.3333 3.66671C18.3333 1.83337 16.8333 0.333374 15 0.333374C13.1667 0.333374 11.6667 1.83337 11.6667 3.66671C11.6667 5.50004 13.1667 7.00004 15 7.00004Z" fill="#168EEA"/>
</svg>
