<svg width="40" height="40" viewBox="0 0 40 40" fill="none" xmlns="http://www.w3.org/2000/svg">
<path d="M14.834 11.4446C14.834 13.1631 13.441 14.5561 11.7226 14.5561C10.0042 14.5561 8.61121 13.1631 8.61121 11.4446C8.61121 9.72631 10.0042 8.33331 11.7226 8.33331C13.441 8.33331 14.834 9.72631 14.834 11.4446Z" fill="#168EEA"/>
<path fill-rule="evenodd" clip-rule="evenodd" d="M8.07997 21.6623C7.59201 22.4425 6.56372 22.6801 5.78332 22.1923C5.00275 21.7045 4.76547 20.6762 5.25332 19.8956L5.2564 19.8907L5.26232 19.8813L5.28242 19.8496C5.2994 19.8229 5.32347 19.7853 5.35393 19.7383C5.41477 19.6446 5.50151 19.5127 5.60846 19.3555C5.82072 19.0434 6.12015 18.6199 6.46011 18.1898C6.79227 17.7696 7.20071 17.2949 7.63242 16.9099C7.84822 16.7175 8.10852 16.5123 8.40212 16.3476C8.67904 16.1923 9.11204 16.001 9.64071 16.001H13.8045C14.3332 16.001 14.7662 16.1923 15.0431 16.3476C15.3367 16.5123 15.597 16.7175 15.8128 16.9099C16.2445 17.2949 16.653 17.7696 16.9851 18.1898C17.3251 18.6199 17.6245 19.0434 17.8368 19.3555C17.9437 19.5127 18.0305 19.6446 18.0913 19.7383C18.1218 19.7853 18.1458 19.8229 18.1628 19.8496L18.183 19.8813L18.1889 19.8907L18.1915 19.8949C18.1915 19.8949 18.1628 19.8496 18.192 19.8956C18.6798 20.6762 18.4425 21.7045 17.662 22.1923C16.8815 22.6801 15.8534 22.443 15.3655 21.6626L15.363 21.6588L15.3502 21.6385C15.3382 21.6196 15.3195 21.5904 15.2947 21.5522C15.2746 21.5212 15.2506 21.4845 15.223 21.4427V23.5126L15.8258 29.842C15.9116 30.7431 15.2625 31.5481 14.3635 31.655C13.4647 31.7619 12.6448 31.1318 12.5167 30.2356L11.6666 24.2851L10.8165 30.2356C10.6885 31.1318 9.86862 31.7619 8.96971 31.655C8.07084 31.5481 7.42167 30.7431 7.50749 29.842L8.20672 22.5H8.22244V21.4424C8.19477 21.4842 8.17067 21.5211 8.15049 21.5522C8.12577 21.5904 8.10706 21.6196 8.09505 21.6385L8.08219 21.6588L8.07997 21.6623Z" fill="#168EEA"/>
<path d="M31.5001 11.4444C31.5001 13.1626 30.1072 14.5556 28.3889 14.5556C26.6707 14.5556 25.2778 13.1626 25.2778 11.4444C25.2778 9.72623 26.6707 8.33331 28.3889 8.33331C30.1072 8.33331 31.5001 9.72623 31.5001 11.4444Z" fill="#168EEA"/>
<path fill-rule="evenodd" clip-rule="evenodd" d="M24.7511 21.4874C24.267 22.2701 23.2399 22.5127 22.4571 22.0288C21.6741 21.5448 21.4318 20.5177 21.9157 19.7348L21.9188 19.7299L21.9246 19.7205L21.9445 19.6887C21.9613 19.6621 21.9851 19.6244 22.0152 19.5775C22.0753 19.4837 22.1611 19.352 22.2668 19.1947C22.4768 18.8827 22.7729 18.4591 23.1092 18.0291C23.4376 17.6089 23.8418 17.1339 24.2694 16.7483C24.4831 16.5556 24.7415 16.3496 25.0338 16.1839C25.3089 16.0278 25.7428 15.8333 26.2746 15.8333H30.3922C30.9239 15.8333 31.3578 16.0278 31.633 16.1839C31.9253 16.3496 32.1838 16.5556 32.3974 16.7483C32.825 17.1339 33.2292 17.6089 33.5577 18.0291C33.8938 18.4591 34.19 18.8827 34.3999 19.1947C34.5057 19.352 34.5914 19.4837 34.6516 19.5775C34.6817 19.6244 34.7055 19.6621 34.7223 19.6887L34.7422 19.7205C34.7576 19.7452 34.7511 19.7348 34.7511 19.7348C35.2351 20.5177 34.9927 21.5448 34.2097 22.0288C33.4269 22.5126 32.4003 22.2705 31.9161 21.4881L31.9135 21.4839L31.9008 21.4636C31.8889 21.4447 31.8704 21.4155 31.8459 21.3773C31.7969 21.301 31.7245 21.1896 31.6341 21.0552C31.5966 20.9995 31.5563 20.9402 31.5136 20.8782C31.9031 22.8203 32.6714 25.4829 33.0738 26.8301C33.2122 27.2936 32.9321 27.7811 32.4587 27.8798C29.5107 28.4942 27.4473 28.4782 24.2468 27.8687C23.7592 27.7758 23.4665 27.2754 23.6137 26.8013C24.0338 25.4486 24.8167 22.8134 25.1874 20.8286C25.1319 20.9087 25.0801 20.9847 25.0327 21.0552C24.9423 21.1896 24.8698 21.301 24.8208 21.3773C24.7963 21.4155 24.7778 21.4447 24.766 21.4636L24.7533 21.4839L24.7511 21.4874Z" fill="#168EEA"/>
<path fill-rule="evenodd" clip-rule="evenodd" d="M24.6666 29.293V30.4167C24.6666 31.0435 25.1309 31.5734 25.7523 31.6558C26.3737 31.7382 26.96 31.3476 27.1235 30.7424L27.4529 29.522C26.5511 29.4915 25.6353 29.4155 24.6666 29.293ZM29.3793 29.5178L29.7099 30.7424C29.8732 31.3475 30.4595 31.7381 31.081 31.6557C31.7024 31.5733 32.1666 31.0434 32.1666 30.4165V29.2814C31.1976 29.4046 30.2815 29.4837 29.3793 29.5178Z" fill="#168EEA"/>
</svg>
