<svg width="14" height="32" viewBox="0 0 14 32" fill="none" xmlns="http://www.w3.org/2000/svg">
<path d="M8.9823 30.4V22.4H11.5583C12.6463 22.4 13.4143 21.328 13.0783 20.288L9.7183 10.192C9.2703 8.88 8.0543 8 6.6783 8H6.4863C5.1103 8 3.8783 8.88 3.4463 10.192L0.0862964 20.288C-0.265704 21.328 0.502298 22.4 1.6063 22.4H4.1823V30.4C4.1823 31.28 4.9023 32 5.7823 32H7.3823C8.2623 32 8.9823 31.28 8.9823 30.4ZM6.5823 6.4C8.3583 6.4 9.7823 4.976 9.7823 3.2C9.7823 1.424 8.3583 0 6.5823 0C4.8063 0 3.3823 1.424 3.3823 3.2C3.3823 4.976 4.8063 6.4 6.5823 6.4Z" fill="#168EEA"/>
</svg>
