<svg width="41" height="40" viewBox="0 0 41 40" fill="none" xmlns="http://www.w3.org/2000/svg">
<path fill-rule="evenodd" clip-rule="evenodd" d="M20.6666 14.1667C22.5076 14.1667 24 12.6742 24 10.8333C24 8.99242 22.5076 7.5 20.6666 7.5C18.8256 7.5 17.3333 8.99242 17.3333 10.8333C17.3333 12.6742 18.8256 14.1667 20.6666 14.1667ZM30.1961 15.8197C30.4281 16.7104 29.8941 17.6206 29.0033 17.8525C27.4997 18.244 26.1328 18.5436 24.8332 18.7493V24.0624L25.6537 30.6266C25.7631 31.5012 25.1725 32.3097 24.306 32.4716C23.4395 32.6334 22.5968 32.0927 22.3831 31.2375L20.7164 24.5708C20.683 24.4373 20.6666 24.3016 20.6666 24.1667C20.6666 24.3016 20.6502 24.4373 20.6168 24.5709L18.9501 31.2376C18.7363 32.0927 17.8936 32.6335 17.0272 32.4717C16.1607 32.3098 15.5701 31.5012 15.6794 30.6266L16.4999 24.0629V18.7273C15.2045 18.5207 13.8435 18.2278 12.3489 17.8573C11.4555 17.6358 10.9108 16.732 11.1322 15.8386C11.3537 14.9452 12.2576 14.4004 13.151 14.6219C16.1826 15.3735 18.4497 15.7428 20.6731 15.7517C22.8915 15.7605 25.1521 15.4108 28.1633 14.6267C29.0541 14.3948 29.9642 14.9289 30.1961 15.8197Z" fill="#168EEA"/>
</svg>
