<svg width="14" height="34" viewBox="0 0 14 34" fill="none" xmlns="http://www.w3.org/2000/svg">
<path d="M2.00004 3.66671C2.00004 1.81671 3.48337 0.333374 5.33337 0.333374C7.18337 0.333374 8.66671 1.81671 8.66671 3.66671C8.66671 5.51671 7.18337 7.00004 5.33337 7.00004C3.48337 7.00004 2.00004 5.51671 2.00004 3.66671ZM13.6667 18.6667C13.65 16.4334 12.2834 14.4834 10.3334 13.6667C10.3334 10.8167 7.96671 8.53337 5.06671 8.66671C2.36671 8.81671 0.333374 11.2334 0.333374 13.9334V23.6667C0.333374 24.5834 1.08337 25.3334 2.00004 25.3334H3.66671V31.1667C3.66671 32.55 4.78337 33.6667 6.16671 33.6667C7.55004 33.6667 8.66671 32.55 8.66671 31.1667V25.3334H12C12.9167 25.3334 13.6667 24.5834 13.6667 23.6667V18.6667Z" fill="#168EEA"/>
</svg>
