<svg width="24" height="24" viewBox="0 0 24 24" fill="none" xmlns="http://www.w3.org/2000/svg">
<path d="M10.6667 7.66671V12.5734C10.6667 13.04 10.9201 13.48 11.3201 13.72L15.4801 16.1867C15.9601 16.4667 16.5734 16.3067 16.8534 15.84C17.1334 15.36 16.9867 14.7467 16.5067 14.4667L12.6801 12.1867V7.65337C12.6667 7.12004 12.2134 6.66671 11.6667 6.66671C11.1201 6.66671 10.6667 7.12004 10.6667 7.66671ZM24.0001 8.66671V1.61337C24.0001 1.01337 23.2801 0.720039 22.8667 1.14671L20.4934 3.52004C18.0801 1.10671 14.6401 -0.279961 10.8801 0.0533721C5.29338 0.560039 0.693384 5.05337 0.0800503 10.64C-0.71995 17.8667 4.92005 24 12.0001 24C18.1201 24 23.1734 19.4134 23.9067 13.4934C24.0001 12.6934 23.3734 12 22.5734 12C21.9067 12 21.3467 12.4934 21.2667 13.1467C20.6934 17.8 16.68 21.4 11.8667 21.3334C6.92005 21.2667 2.74672 17.0934 2.66672 12.1334C2.58672 6.93337 6.81338 2.66671 12.0001 2.66671C14.5734 2.66671 16.9067 3.72004 18.6001 5.40004L15.8134 8.18671C15.3867 8.61337 15.6801 9.33337 16.2801 9.33337H23.3334C23.7067 9.33337 24.0001 9.04004 24.0001 8.66671Z" fill="#168EEA"/>
</svg>
