<svg width="28" height="28" viewBox="0 0 28 28" fill="none" xmlns="http://www.w3.org/2000/svg">
<path d="M13.9866 0.796661C6.62663 0.796661 0.666626 6.76999 0.666626 14.13C0.666626 21.49 6.62663 27.4633 13.9866 27.4633C21.36 27.4633 27.3333 21.49 27.3333 14.13C27.3333 6.76999 21.36 0.796661 13.9866 0.796661ZM18.2933 21.3167L14 18.73L9.70662 21.3167C9.19996 21.6233 8.57329 21.17 8.70662 20.5967L9.83996 15.7167L6.06663 12.45C5.62663 12.0633 5.86663 11.33 6.45329 11.2767L11.44 10.85L13.3866 6.24999C13.6133 5.70333 14.3866 5.70333 14.6133 6.24999L16.56 10.8367L21.5466 11.2633C22.1333 11.3167 22.3733 12.05 21.92 12.4367L18.1466 15.7033L19.28 20.5967C19.4133 21.17 18.8 21.6233 18.2933 21.3167Z" fill="#7F838C"/>
</svg>
