<svg width="28" height="28" viewBox="0 0 28 28" fill="none" xmlns="http://www.w3.org/2000/svg">
<path d="M13.9867 0.666748C6.62675 0.666748 0.666748 6.64008 0.666748 14.0001C0.666748 21.3601 6.62675 27.3334 13.9867 27.3334C21.3601 27.3334 27.3334 21.3601 27.3334 14.0001C27.3334 6.64008 21.3601 0.666748 13.9867 0.666748ZM18.2934 21.1867L14.0001 18.6001L9.70675 21.1867C9.20008 21.4934 8.57341 21.0401 8.70675 20.4667L9.84008 15.5867L6.06675 12.3201C5.62675 11.9334 5.86675 11.2001 6.45341 11.1467L11.4401 10.7201L13.3867 6.12008C13.6134 5.57341 14.3867 5.57341 14.6134 6.12008L16.5601 10.7067L21.5467 11.1334C22.1334 11.1867 22.3734 11.9201 21.9201 12.3067L18.1467 15.5734L19.2801 20.4667C19.4134 21.0401 18.8001 21.4934 18.2934 21.1867Z" fill="#FAFAFA" fill-opacity="0.980392"/>
</svg>
