<svg width="30" height="34" viewBox="0 0 30 34" fill="none" xmlns="http://www.w3.org/2000/svg">
<path d="M26.6667 3.40004H19.7C19 1.46671 17.1667 0.0667114 15 0.0667114C12.8333 0.0667114 11 1.46671 10.3 3.40004H3.33333C1.5 3.40004 0 4.90004 0 6.73338V30.0667C0 31.9 1.5 33.4 3.33333 33.4H26.6667C28.5 33.4 30 31.9 30 30.0667V6.73338C30 4.90004 28.5 3.40004 26.6667 3.40004ZM15 3.40004C15.9167 3.40004 16.6667 4.15004 16.6667 5.06671C16.6667 5.98338 15.9167 6.73338 15 6.73338C14.0833 6.73338 13.3333 5.98338 13.3333 5.06671C13.3333 4.15004 14.0833 3.40004 15 3.40004ZM15 10.0667C17.7667 10.0667 20 12.3 20 15.0667C20 17.8334 17.7667 20.0667 15 20.0667C12.2333 20.0667 10 17.8334 10 15.0667C10 12.3 12.2333 10.0667 15 10.0667ZM25 30.0667H5V27.7334C5 24.4 11.6667 22.5667 15 22.5667C18.3333 22.5667 25 24.4 25 27.7334V30.0667Z" fill="#168EEA"/>
</svg>
