<svg width="40" height="41" viewBox="0 0 40 41" fill="none" xmlns="http://www.w3.org/2000/svg">
<path d="M14.1667 20.4C17.3896 20.4 20 17.7896 20 14.5667C20 11.3438 17.3896 8.73334 14.1667 8.73334C10.9438 8.73334 8.33337 11.3438 8.33337 14.5667C8.33337 17.7896 10.9438 20.4 14.1667 20.4Z" fill="#168EEA"/>
<path d="M32.5 17.4834C32.5 20.0156 30.449 22.0667 27.9167 22.0667C25.3845 22.0667 23.3334 20.0156 23.3334 17.4834C23.3334 14.951 25.3845 12.9 27.9167 12.9C30.449 12.9 32.5 14.951 32.5 17.4834Z" fill="#168EEA"/>
<path d="M14.1667 22.0667C16.4447 22.0667 20.1525 22.776 22.5843 24.1877C23.5775 25.1988 24.1667 26.3012 24.1667 27.4V32.0667H3.33337V27.4C3.33337 23.8534 10.551 22.0667 14.1667 22.0667Z" fill="#168EEA"/>
<path d="M36.6667 32.0667H25.8333V27.4C25.8333 26.2198 25.4072 25.1334 24.7303 24.1638C26.0144 23.8771 27.2786 23.7333 28.2439 23.7333C31.3509 23.7333 36.6667 25.2223 36.6667 28.1778V32.0667Z" fill="#168EEA"/>
</svg>
