<svg width="24" height="24" viewBox="0 0 24 24" fill="none" xmlns="http://www.w3.org/2000/svg">
<path d="M15.5333 2.76996L8.86667 0.436622C8.30667 0.236622 7.69333 0.236622 7.13333 0.423289L1.81333 2.20996C0.733333 2.58329 0 3.59662 0 4.74329V20.5433C0 22.4233 1.88 23.7033 3.62667 23.0233L7.53333 21.5033C7.82667 21.3833 8.16 21.3833 8.45333 21.49L15.12 23.8233C15.68 24.0233 16.2933 24.0233 16.8533 23.8366L22.1733 22.05C23.2533 21.69 23.9867 20.6633 23.9867 19.5166V3.71662C23.9867 1.83662 22.1067 0.556622 20.36 1.23662L16.4533 2.75662C16.16 2.86329 15.84 2.87662 15.5333 2.76996ZM16 21.3166L8 18.5033V2.94329L16 5.75662V21.3166Z" fill="#7F838C"/>
</svg>
