<svg width="24" height="24" viewBox="0 0 24 24" fill="none" xmlns="http://www.w3.org/2000/svg">
<path d="M15.5333 2.64007L8.86667 0.306739C8.30667 0.106739 7.69333 0.106739 7.13333 0.293406L1.81333 2.08007C0.733333 2.45341 0 3.46674 0 4.61341V20.4134C0 22.2934 1.88 23.5734 3.62667 22.8934L7.53333 21.3734C7.82667 21.2534 8.16 21.2534 8.45333 21.3601L15.12 23.6934C15.68 23.8934 16.2933 23.8934 16.8533 23.7067L22.1733 21.9201C23.2533 21.5601 23.9867 20.5334 23.9867 19.3867V3.58674C23.9867 1.70674 22.1067 0.426739 20.36 1.10674L16.4533 2.62674C16.16 2.73341 15.84 2.74674 15.5333 2.64007ZM16 21.1867L8 18.3734V2.81341L16 5.62674V21.1867Z" fill="#FAFAFA" fill-opacity="0.980392"/>
</svg>
