<svg width="40" height="40" viewBox="0 0 40 40" fill="none" xmlns="http://www.w3.org/2000/svg">
<path d="M20 10.8334C21.3807 10.8334 22.5 9.71412 22.5 8.33337C22.5 6.95267 21.3807 5.83337 20 5.83337C18.6192 5.83337 17.5 6.95267 17.5 8.33337C17.5 9.71412 18.6192 10.8334 20 10.8334Z" fill="#168EEA"/>
<path fill-rule="evenodd" clip-rule="evenodd" d="M20.0001 6.66667C19.0796 6.66667 18.3334 7.41286 18.3334 8.33333C18.3334 9.25383 19.0796 10 20.0001 10C20.9206 10 21.6667 9.25383 21.6667 8.33333C21.6667 7.41286 20.9206 6.66667 20.0001 6.66667ZM16.6667 8.33333C16.6667 6.49238 18.1592 5 20.0001 5C21.841 5 23.3334 6.49238 23.3334 8.33333C23.3334 10.1742 21.841 11.6667 20.0001 11.6667C18.1592 11.6667 16.6667 10.1742 16.6667 8.33333Z" fill="#168EEA"/>
<path d="M25 19.4166C25 18.0242 24.4732 16.6889 23.5355 15.7043C22.5978 14.7197 21.3261 14.1666 20 14.1666C18.6739 14.1666 17.4022 14.7197 16.4645 15.7043C15.5268 16.6889 15 18.0242 15 19.4166V21.6666H17.1428L17.8572 29.1666H22.1428L22.8572 21.6666H25V19.4166Z" fill="#168EEA"/>
<path fill-rule="evenodd" clip-rule="evenodd" d="M15.8611 15.1297C16.9516 13.9847 18.4395 13.3334 20.0001 13.3334C21.5607 13.3334 23.0486 13.9847 24.1391 15.1297C25.2282 16.2733 25.8334 17.816 25.8334 19.4167V21.6667C25.8334 22.127 25.4603 22.5 25.0001 22.5H23.615L22.9725 29.2457C22.9317 29.6734 22.5726 30 22.1429 30H17.8572C17.4276 30 17.0684 29.6734 17.0277 29.2457L16.3852 22.5H15.0001C14.5398 22.5 14.1667 22.127 14.1667 21.6667V19.4167C14.1667 17.816 14.7719 16.2733 15.8611 15.1297ZM20.0001 15C18.9085 15 17.8529 15.455 17.068 16.2791C16.2818 17.1046 15.8334 18.2325 15.8334 19.4167V20.8334H17.1429C17.5726 20.8334 17.9317 21.16 17.9725 21.5877L18.615 28.3334H21.3852L22.0277 21.5877C22.0684 21.16 22.4276 20.8334 22.8572 20.8334H24.1667V19.4167C24.1667 18.2325 23.7183 17.1046 22.9322 16.2791C22.1472 15.455 21.0917 15 20.0001 15Z" fill="#168EEA"/>
<path fill-rule="evenodd" clip-rule="evenodd" d="M6.66667 11.6666V18.3333H5V11.6666H6.66667Z" fill="#168EEA"/>
<path fill-rule="evenodd" clip-rule="evenodd" d="M5 14.1666H11.6667V15.8333H5V14.1666Z" fill="#168EEA"/>
<path fill-rule="evenodd" clip-rule="evenodd" d="M34.9999 11.6666V18.3333H33.3333V11.6666H34.9999Z" fill="#168EEA"/>
<path fill-rule="evenodd" clip-rule="evenodd" d="M28.3333 14.1666H34.9999V15.8333H28.3333V14.1666Z" fill="#168EEA"/>
<path fill-rule="evenodd" clip-rule="evenodd" d="M11.7764 23.9061C11.9203 24.3433 11.6826 24.8143 11.2454 24.9582C9.72992 25.4572 8.54725 26.0664 7.76047 26.7174C6.9695 27.3719 6.66667 27.9887 6.66667 28.5218C6.66667 28.9969 6.90494 29.5348 7.51806 30.1124C8.1328 30.6915 9.06725 31.2514 10.2912 31.7391C12.7343 32.7127 16.1666 33.3334 20 33.3334C23.8334 33.3334 27.2657 32.7127 29.7088 31.7391C30.9328 31.2514 31.8672 30.6915 32.4819 30.1124C33.0951 29.5348 33.3333 28.9969 33.3333 28.5218C33.3333 27.9887 33.0305 27.3719 32.2395 26.7174C31.4527 26.0664 30.2701 25.4572 28.7546 24.9582C28.3174 24.8143 28.0797 24.3433 28.2236 23.9061C28.3675 23.4689 28.8386 23.2312 29.2758 23.3752C30.9065 23.912 32.2996 24.6039 33.302 25.4334C34.3002 26.2593 35 27.3021 35 28.5218C35 29.6054 34.4454 30.5524 33.6248 31.3255C32.8057 32.0971 31.6655 32.7535 30.3257 33.2874C27.6416 34.3569 23.9905 35 20 35C16.0095 35 12.3584 34.3569 9.67425 33.2874C8.3345 32.7535 7.19426 32.0971 6.37522 31.3255C5.55457 30.5524 5 29.6054 5 28.5218C5 27.3021 5.69978 26.2593 6.69799 25.4334C7.70039 24.6039 9.0935 23.912 10.7242 23.3752C11.1614 23.2312 11.6325 23.4689 11.7764 23.9061Z" fill="#168EEA"/>
</svg>
