<svg width="22" height="30" viewBox="0 0 22 30" fill="none" xmlns="http://www.w3.org/2000/svg">
<path d="M17.6667 23.35V13.3333C17.6667 12.4167 16.9167 11.6667 16.0001 11.6667C15.0834 11.6667 14.3334 12.4167 14.3334 13.3333V23.35H11.3501C10.6001 23.35 10.2334 24.25 10.7667 24.7667L15.4167 29.4C15.7501 29.7167 16.2667 29.7167 16.6001 29.4L21.2501 24.7667C21.7834 24.25 21.4001 23.35 20.6667 23.35H17.6667ZM5.41672 0.583325L0.766718 5.23333C0.233384 5.74999 0.600051 6.64999 1.35005 6.64999H4.33338V16.6667C4.33338 17.5833 5.08338 18.3333 6.00005 18.3333C6.91672 18.3333 7.66672 17.5833 7.66672 16.6667V6.64999H10.6501C11.4001 6.64999 11.7667 5.74999 11.2334 5.23333L6.58338 0.583325C6.26672 0.266659 5.73338 0.266659 5.41672 0.583325Z" fill="#168EEA"/>
</svg>
