<svg width="34" height="34" viewBox="0 0 34 34" fill="none" xmlns="http://www.w3.org/2000/svg">
<path d="M17 11.1667C15.4834 11.1667 12.4167 11.9334 12.4167 13.4667V20.3334C12.4167 20.8 12.7834 21.1667 13.25 21.1667H14.9167V26.5834C14.9167 27.7334 15.85 28.6667 17 28.6667C18.15 28.6667 19.0834 27.7334 19.0834 26.5834V21.1667H20.75C21.2167 21.1667 21.5834 20.8 21.5834 20.3334V13.4667C21.5834 11.95 18.5167 11.1667 17 11.1667ZM17 0.333374C7.78337 0.333374 0.333374 7.78337 0.333374 17C0.333374 26.2167 7.78337 33.6667 17 33.6667C26.2167 33.6667 33.6667 26.2 33.6667 17C33.6667 7.80004 26.2 0.333374 17 0.333374ZM17 30.3334C9.63337 30.3334 3.66671 24.3667 3.66671 17C3.66671 9.63337 9.63337 3.66671 17 3.66671C24.3667 3.66671 30.3334 9.63337 30.3334 17C30.3334 24.3667 24.3667 30.3334 17 30.3334Z" fill="#168EEA"/>
<path d="M17 10.3334C18.3807 10.3334 19.5 9.21409 19.5 7.83337C19.5 6.45266 18.3807 5.33337 17 5.33337C15.6193 5.33337 14.5 6.45266 14.5 7.83337C14.5 9.21409 15.6193 10.3334 17 10.3334Z" fill="#168EEA"/>
</svg>
