<svg width="40" height="40" viewBox="0 0 40 40" fill="none" xmlns="http://www.w3.org/2000/svg">
<path fill-rule="evenodd" clip-rule="evenodd" d="M26.9388 13.4693C28.7421 13.4693 30.2041 12.0074 30.2041 10.204C30.2041 8.40068 28.7421 6.93872 26.9388 6.93872C25.1354 6.93872 23.6735 8.40068 23.6735 10.204C23.6735 12.0074 25.1354 13.4693 26.9388 13.4693ZM31.271 24.3027C31.7442 25.8441 32.3389 27.4639 32.7095 28.4401C32.8903 28.9158 32.6018 29.4428 32.1013 29.5348C28.3967 30.216 25.8454 30.1986 21.8206 29.5243C21.3052 29.4379 21.0067 28.8916 21.1991 28.4058C21.5838 27.4343 22.1851 25.8483 22.6522 24.3079C21.17 24.1612 20 22.435 20 20.327C20 18.1229 21.2792 16.3361 22.8571 16.3361L22.8674 16.336C22.8607 16.2871 22.8571 16.2371 22.8571 16.1863C22.8571 15.5875 23.3426 15.102 23.9415 15.102H29.9361C30.5349 15.102 31.0204 15.5875 31.0204 16.1863C31.0204 16.2371 31.0169 16.2871 31.0101 16.336H31.0204C32.5984 16.336 33.8776 18.1228 33.8776 20.327C33.8776 22.4132 32.7316 24.1254 31.271 24.3027ZM24.4592 19.5988C24.7891 18.8631 24.898 17.7545 24.898 16.3266H26.5306C26.5306 17.7557 26.4354 19.1819 25.949 20.2668C25.6967 20.8293 25.3264 21.3315 24.7858 21.6876C24.2442 22.0444 23.5953 22.2126 22.8571 22.2126V20.5799C23.3435 20.5799 23.6639 20.4716 23.8877 20.3242C24.1124 20.1761 24.3033 19.9466 24.4592 19.5988ZM28.9796 16.3265C28.9796 17.7544 29.0885 18.8631 29.4184 19.5988C29.5743 19.9466 29.7651 20.1761 29.9899 20.3242C30.2136 20.4715 30.534 20.5799 31.0204 20.5799V22.2126C30.2823 22.2126 29.6333 22.0444 29.0918 21.6875C28.5512 21.3315 28.1808 20.8293 27.9286 20.2668C27.4421 19.1819 27.3469 17.7557 27.3469 16.3265H28.9796Z" fill="#168EEA"/>
<path fill-rule="evenodd" clip-rule="evenodd" d="M23.2653 30.736V31.8367C23.2653 32.4508 23.72 32.9698 24.3288 33.0505C24.9375 33.1312 25.5119 32.7486 25.672 32.1558L25.9946 30.9603C25.1113 30.9304 24.2142 30.856 23.2653 30.736ZM28.6866 30.9139L29.0218 32.1558C29.1819 32.7486 29.7563 33.1312 30.365 33.0505C30.9737 32.9698 31.4285 32.4508 31.4285 31.8367V30.6123C30.4664 30.7543 29.5644 30.8552 28.6866 30.9139Z" fill="#168EEA"/>
<path fill-rule="evenodd" clip-rule="evenodd" d="M11.7919 13.4693C13.5953 13.4693 15.0572 12.0074 15.0572 10.204C15.0572 8.40068 13.5953 6.93872 11.7919 6.93872C9.98852 6.93872 8.52656 8.40068 8.52656 10.204C8.52656 12.0074 9.98852 13.4693 11.7919 13.4693ZM14.7954 33.058C15.6559 33.0044 16.3266 32.2908 16.3266 31.4285V24.3253C17.9378 24.0801 19.1847 22.4004 19.1847 20.3646C19.1847 18.2675 17.8613 16.548 16.1796 16.3857C16.2723 16.2533 16.3266 16.0921 16.3266 15.9183C16.3266 15.4675 15.9611 15.102 15.5102 15.102H8.97962C8.52876 15.102 8.1633 15.4675 8.1633 15.9183C8.1633 16.0922 8.21766 16.2533 8.31032 16.3857C6.62898 16.5487 5.30615 18.2678 5.30615 20.3646C5.30615 22.3999 6.55252 24.0795 8.1633 24.3252V31.4285C8.1633 32.2895 8.83195 33.0026 9.69121 33.0578C10.5505 33.1131 11.3049 32.4915 11.4151 31.6376L12.0746 26.5306H12.4364L13.0738 31.631C13.1808 32.4866 13.9347 33.1116 14.7954 33.058ZM9.41105 19.7297C9.74803 19.0338 9.8824 17.9328 9.8824 16.3731H11.5151C11.5151 17.9396 11.3951 19.3786 10.8805 20.4413C10.6124 20.995 10.2271 21.4692 9.68411 21.7976C9.14444 22.1239 8.50983 22.2695 7.80094 22.2695V20.6368C8.28664 20.6368 8.61154 20.5382 8.83921 20.4005C9.06362 20.2648 9.2535 20.0551 9.41105 19.7297ZM14.4282 16.3731C14.4282 17.9328 14.5626 19.0338 14.8995 19.7297C15.0572 20.0551 15.2471 20.2648 15.4714 20.4005C15.6991 20.5382 16.0239 20.6368 16.5097 20.6368V22.2695C15.8008 22.2695 15.1662 22.1239 14.6265 21.7976C14.0835 21.4692 13.6982 20.995 13.4301 20.4413C12.9155 19.3786 12.7955 17.9396 12.7955 16.3731H14.4282Z" fill="#168EEA"/>
</svg>
