<svg width="28" height="28" viewBox="0 0 28 28" fill="none" xmlns="http://www.w3.org/2000/svg">
<path d="M14.0001 0.666626C6.64008 0.666626 0.666748 6.63996 0.666748 14C0.666748 21.36 6.64008 27.3333 14.0001 27.3333C21.3601 27.3333 27.3334 21.36 27.3334 14C27.3334 6.63996 21.3601 0.666626 14.0001 0.666626ZM14.0001 4.66663C16.2134 4.66663 18.0001 6.45329 18.0001 8.66663C18.0001 10.88 16.2134 12.6666 14.0001 12.6666C11.7867 12.6666 10.0001 10.88 10.0001 8.66663C10.0001 6.45329 11.7867 4.66663 14.0001 4.66663ZM14.0001 23.6C10.6667 23.6 7.72008 21.8933 6.00008 19.3066C6.04008 16.6533 11.3334 15.2 14.0001 15.2C16.6534 15.2 21.9601 16.6533 22.0001 19.3066C20.2801 21.8933 17.3334 23.6 14.0001 23.6Z" fill="white"/>
</svg>
